<svg id="레이어_1" data-name="레이어 1" xmlns="http://www.w3.org/2000/svg" viewBox="0 0 540 172.48"><defs><style>.cls-1{fill:#b3cb48;}.cls-2{fill:#a96232;}</style></defs><path class="cls-1" d="M236.43,118.32h-7.28V103.76c0-7.27-4-11.26-11-11.26h-4.46c-7.28,0-11.27,4-11.27,11.26v14.56H175.16l8.22-13.38,40.38-66.66c3.52-5.87,1.87-11.27-4-15.26l-3.52-2.35c-5.87-3.75-11.51-2.34-15.26,3.76L136,131.7c-4.7,7.75-1.18,13.38,7.74,13.38h58.68v22.3c0,7,4,11,11.27,11h4.46c7,0,11-4,11-11v-22.3h7.28c7,0,11-4.23,11-11.27v-4.46C247.46,122.31,243.47,118.32,236.43,118.32Z" transform="translate(173.5 -8.68)"/><path class="cls-1" d="M354.72,151.65H305.67c8.21-11.26,23-26.76,29.1-33.33,18.55-20.66,26.06-29.58,28.17-45.54,1.64-10.09,0-26.76-11.26-39.2-8.69-9.39-25.59-16.66-46-13.14C285,23.72,267.4,41.8,263.88,72.55c-.7,7.51,3.52,11.73,10.8,11.73h4.46c7,0,10.56-3.75,11.5-11.26,2.11-17.84,9.39-24.65,19-26.3,12-1.87,18.31.94,22.3,5.17,4.7,4.93,4.7,10.8,3.29,16.9-2.11,9.63-4.46,13.61-18.78,29.81-14.55,16.2-40.14,38.74-51.4,67.14-2.82,7.74,1.41,12.67,9.39,12.67h80.27c7,0,11.27-4,11.27-11v-4.46C366,155.64,361.77,151.65,354.72,151.65Z" transform="translate(173.5 -8.68)"/><path class="cls-2" d="M-74.52,19.07h-4.41c-7.07,0-11,4-11,11V85.76H-95c-7.07,0-11,4-11,11v4.41c0,7.07,4,11,11,11H-90v57.86c0,7.06,4,11,11,11h4.41c7.07,0,11-4,11-11v-140C-63.47,23-67.45,19.07-74.52,19.07Z" transform="translate(173.5 -8.68)"/><rect class="cls-2" x="116.65" y="10.38" width="26.5" height="162.1" rx="11.04"/><path class="cls-2" d="M-104.33,155.55l-.89-1.11-20.53-24.51a10.76,10.76,0,0,0-4.42-3.53c7.29-28.05,11.27-57.2,13-82.16h8.61c7.07,0,11-4,11-11V30.11c0-7.07-4-11-11-11h-51c-7.07,0-11.05,4-11.05,11V33.2c0,7.07,4,11,11.05,11h17.89c-2.65,48.59-13.7,93.86-30.7,119.26-2.65,3.76-.66,7.51,5.52,11.26l5.08,3.09c6.18,3.76,11.93,2.44,15-4.19A320.27,320.27,0,0,0-134.8,143l5.3,24.3.21.88a24.39,24.39,0,0,0,.89,3.09,14.14,14.14,0,0,0,19,8,13.9,13.9,0,0,0,8-18.55A16,16,0,0,0-104.33,155.55Z" transform="translate(173.5 -8.68)"/><path class="cls-2" d="M102.15,110.49H20c-7.06,0-11,3.76-11,10.61s4,10.6,11,10.6h66.7v7.06H20c-7.06,0-11,2.65-11,7.07a4.63,4.63,0,0,0,.66,2.65A14,14,0,0,0,9,152.9v17.67c0,6.84,4,10.6,11,10.6h82.16c7.07,0,11-3.76,11-10.6s-4-10.61-11-10.61H35.45V152.9h66.7c7.07,0,11-2.65,11-7.07a8,8,0,0,0-.44-2.21,13.4,13.4,0,0,0,.44-3.31V126.17a10.71,10.71,0,0,0-.22-2.64,8.35,8.35,0,0,0,.22-2.43C113.19,114.25,109.22,110.49,102.15,110.49Z" transform="translate(173.5 -8.68)"/><path class="cls-2" d="M97.51,105.42h4.42c7.07,0,11-4,11-11V30.11c0-7.07-4-11-11-11H97.51c-7.07,0-11,4-11,11V44H82.05c-7.06,0-11,4-11,11v4.42c0,7.07,4,11,11,11h4.42V94.37C86.47,101.44,90.44,105.42,97.51,105.42Z" transform="translate(173.5 -8.68)"/><path class="cls-2" d="M15.58,97.69c6.18-8.17,11.26-15,15.24-21.21l8.83,17.23,2,3.32a39.64,39.64,0,0,0,3.09,4c5.3,5.74,15,5.3,20.32.22,6.18-6,6.4-15.46-.22-21.2-1.33-1.33-6.85-4.2-8.62-5.08L37.44,65a79.2,79.2,0,0,0,6-20.76h13c7.07,0,11.05-4,11.05-11V30.11c0-7.07-4-11-11.05-11H41.64v-.89c0-6.18-4-9.5-11-9.5H27.5c-7.06,0-11,3.32-11,9.5v.89h-15c-7.06,0-11,4-11,11V33.2c0,7.07,4,11,11,11H15.36C11.16,59.92,3,71.85-7.39,83.55c-4.86,5.3-3.76,10.82,2.65,14.58L.12,101C6.08,104.53,11.38,103.65,15.58,97.69Z" transform="translate(173.5 -8.68)"/><path class="cls-1" d="M236.94,118.32h-7.28V103.76c0-7.27-4-11.26-11-11.26h-4.46c-7.28,0-11.27,4-11.27,11.26v14.56H175.67l8.22-13.38,40.38-66.66c3.52-5.87,1.87-11.27-4-15.26l-3.51-2.35c-5.87-3.75-11.51-2.34-15.26,3.76l-65,107.27c-4.7,7.75-1.18,13.38,7.74,13.38H202.9v22.3c0,7,4,11,11.27,11h4.46c7.05,0,11-4,11-11v-22.3h7.28c7,0,11-4.23,11-11.27v-4.46C248,122.31,244,118.32,236.94,118.32Z" transform="translate(173.5 -8.68)"/><path class="cls-1" d="M355.23,151.65H306.18c8.21-11.26,23-26.76,29.1-33.33,18.55-20.66,26.06-29.58,28.17-45.54,1.64-10.09,0-26.76-11.26-39.2-8.69-9.39-25.59-16.66-46-13.14-20.66,3.28-38.27,21.36-41.79,52.11-.7,7.51,3.52,11.73,10.8,11.73h4.46c7,0,10.56-3.75,11.5-11.26,2.11-17.84,9.39-24.65,19-26.3,12-1.87,18.31.94,22.3,5.17,4.7,4.93,4.7,10.8,3.29,16.9C333.64,78.42,331.29,82.4,317,98.6c-14.55,16.2-40.14,38.74-51.4,67.14-2.82,7.74,1.41,12.67,9.39,12.67h80.27c7,0,11.27-4,11.27-11v-4.46C366.5,155.64,362.28,151.65,355.23,151.65Z" transform="translate(173.5 -8.68)"/></svg>