<svg id="레이어_1" data-name="레이어 1" xmlns="http://www.w3.org/2000/svg" viewBox="0 0 1066.41 242.66"><defs><style>.cls-1{fill:#f2d149;}.cls-2{fill:#e94a48;}.cls-3{fill:#ed7552;}.cls-4{fill:#dcaa60;}.cls-5{fill:#0aa658;}.cls-6{fill:#b3cb48;}.cls-7{fill:#cc881d;}.cls-8{fill:#e6a84f;}.cls-9{fill:#a96232;}</style></defs><path class="cls-1" d="M222.62,262.34c1.86,2.92,3.62,5.69,5.26,8.36,2.91,4.71,4.94,8.3,6.46,11.4a51.15,51.15,0,0,1,6.45-6.79,22.33,22.33,0,0,0,1.55-4.28,50.9,50.9,0,0,0-.21-6.2,145.89,145.89,0,0,0-5.93-29.37c-7.55-24.51-20.92-45.81-35.46-56.79-4.8,14.17-5,33.65-.78,53.74a120.06,120.06,0,0,1,17.27,21.37C219.06,256.73,220.88,259.59,222.62,262.34Z" transform="translate(-66.79 -178.67)"/><path class="cls-1" d="M242.13,274.16c.11-1,.18-2.05.21-3.13a22.33,22.33,0,0,1-1.55,4.28C241.24,274.92,241.68,274.53,242.13,274.16Z" transform="translate(-66.79 -178.67)"/><path class="cls-2" d="M310.46,286.2c-.35-.35-.71-.66-1.07-1a21.61,21.61,0,0,0-2.8-2.16A18.81,18.81,0,0,0,295,280c-2,.11-3.88.16-5.69.16h-.4c-1,0-2,0-3-.12l-.46,0c-1.14-.09-2.26-.21-3.39-.4-.52-.08-1-.21-1.53-.32a50.48,50.48,0,0,1-6.62-1.87c-1.49-.52-2.93-1.07-4.27-1.6-.34-.14-.68-.26-1-.38a19.45,19.45,0,0,0-14.73.89c-.3.14-.61.26-.92.41a31.7,31.7,0,0,0-5.32,3.43,41.37,41.37,0,0,0-5.78,5.61c-.65.77-1.28,1.56-1.88,2.37s-1.2,1.65-1.77,2.5c.33.72.65,1.44.95,2.17.67,1.62,1.3,3.27,1.86,5a80.66,80.66,0,0,1,4,25.37c0,1.46-.05,2.9-.13,4.33a10.4,10.4,0,0,1-.32,4.21c-.07.6-.12,1.19-.2,1.78h24.91a119.77,119.77,0,0,1,20.32-21.26,117.67,117.67,0,0,1,27.11-17A34.21,34.21,0,0,0,310.46,286.2Z" transform="translate(-66.79 -178.67)"/><path class="cls-3" d="M309.08,235.52c3.07,1.06,11.39,3.2,19.33-.85,8.61-4.36,15.21-13.81,17.84-18.07-5-.36-16.52-.59-25.11,3.79C313.15,224.46,310,232.43,309.08,235.52Z" transform="translate(-66.79 -178.67)"/><path class="cls-3" d="M305.37,233.92c1.63-2.83,5.36-10.56,2.94-19.15-2.65-9.27-10.64-17.57-14.28-21-1.34,4.84-3.79,16.11-1.16,25.36C295.3,227.69,302.51,232.35,305.37,233.92Z" transform="translate(-66.79 -178.67)"/><path class="cls-3" d="M335.76,240.6c-5-.36-16.52-.6-25.1,3.79-8,4.07-11.11,12-12.07,15.12,3.07,1.06,11.4,3.2,19.33-.85C326.5,254.31,333.1,244.85,335.76,240.6Z" transform="translate(-66.79 -178.67)"/><path class="cls-3" d="M294.88,257.89c1.63-2.81,5.34-10.54,2.94-19.12-2.65-9.28-10.64-17.58-14.28-21-1.34,4.85-3.78,16.08-1.16,25.36C284.83,251.68,292,256.34,294.88,257.89Z" transform="translate(-66.79 -178.67)"/><path class="cls-3" d="M295.1,271.91a27.24,27.24,0,0,1,18.66,6.38,62.54,62.54,0,0,0,11.38-13.65c-5-.36-16.5-.59-25.1,3.79A21.56,21.56,0,0,0,295.1,271.91Z" transform="translate(-66.79 -178.67)"/><path class="cls-3" d="M287.84,272a22,22,0,0,0-.53-9.27c-2.61-9.25-10.62-17.58-14.26-21-1.34,4.82-3.78,16.08-1.16,25.36.11.37.23.72.36,1.08l.32.11a53.74,53.74,0,0,0,10.73,3.31A33.45,33.45,0,0,0,287.84,272Z" transform="translate(-66.79 -178.67)"/><path class="cls-3" d="M328.05,207.15c3.87-8.84,3-20.34,2.32-25.31-4.1,2.88-13.14,10-17,18.86-3.61,8.2-1,16.34.26,19.36C316.69,218.92,324.47,215.29,328.05,207.15Z" transform="translate(-66.79 -178.67)"/><path class="cls-3" d="M358.75,306.25a13.88,13.88,0,0,0-1.07-3.34c-.11-.25-.23-.49-.36-.73a12.38,12.38,0,0,0-1.24-1.87.61.61,0,0,1-.07-.1c-.12-.14-.25-.27-.38-.4a12.41,12.41,0,0,0-1.63-1.53l-.38-.26-.31-.22a15.55,15.55,0,0,0-2.24-1.22,18.54,18.54,0,0,0-2.81-.95,24.44,24.44,0,0,0-4.52-.68c-1-.05-2.05-.06-3.12,0s-2.13.14-3.23.27a57.89,57.89,0,0,0-10.91,2.51c-1.26.41-2.54.87-3.83,1.37s-2.47,1-3.73,1.54a112,112,0,0,0-25.66,16.07,115.69,115.69,0,0,0-16.61,16.79h74a61.57,61.57,0,0,0,7-14.65c.32-1.06.59-2.11.81-3.13.16-.72.29-1.44.39-2.14l.12-.93a24.31,24.31,0,0,0,.16-2.91A18.38,18.38,0,0,0,358.75,306.25Z" transform="translate(-66.79 -178.67)"/><path class="cls-4" d="M167.23,259c-.79-10.24-4.8-19.9-11.11-26.22a23.85,23.85,0,0,0-14.69-7.19A19.1,19.1,0,0,0,126.26,231a6.63,6.63,0,0,0-1.87,5.68,6.85,6.85,0,0,0,3.47,5,6.67,6.67,0,0,0,8-1.14,5.36,5.36,0,0,1,4.46-1.45,10.31,10.31,0,0,1,6.22,3.25c3.81,3.81,6.32,9.69,7.07,16.16a25,25,0,0,1,13.63.51Z" transform="translate(-66.79 -178.67)"/><path class="cls-5" d="M256.08,190.52a178.09,178.09,0,0,0-18.53,29.61c1.76,4.33,3.39,8.81,4.81,13.43a152.19,152.19,0,0,1,6.18,30.68c.18,1.91.27,3.75.26,5.53l.48-.26a31.11,31.11,0,0,1,3.11-1.35C247.25,244.8,256.08,190.52,256.08,190.52Z" transform="translate(-66.79 -178.67)"/><path class="cls-5" d="M203.42,245.73c-1.6-1.92-3.25-3.78-4.93-5.58q-2.19-2.33-4.42-4.5c-.68-.67-1.36-1.33-2-2a178.77,178.77,0,0,0-32.54-24.08s16,26,25.86,49a40,40,0,0,1,15.75-.15c1.29.24,2.56.55,3.82.91a40.84,40.84,0,0,1,4,1.37,45.33,45.33,0,0,1,7.49,3.85c-1.53-2.41-3.1-4.87-4.68-7.43A101.54,101.54,0,0,0,203.42,245.73Z" transform="translate(-66.79 -178.67)"/><path class="cls-6" d="M386.05,288.66a177.7,177.7,0,0,1-21.19,20.19c0,.79,0,1.6,0,2.43a170.72,170.72,0,0,0,21.79-7,175.21,175.21,0,0,0,43.1-25.08A177.94,177.94,0,0,0,386.05,288.66Z" transform="translate(-66.79 -178.67)"/><path class="cls-6" d="M374.22,280.38c-2,3.28-4.19,6.5-6.45,9.66-1.24,1.74-2.5,3.46-3.81,5.15-.76,1-1.53,2-2.31,2.93.26.39.51.79.73,1.2a19.26,19.26,0,0,1,1.31,3c3.12-2.62,6.13-5.36,9-8.18q2.81-2.72,5.46-5.53c1.3-1.37,2.62-2.73,3.87-4.15l.62-.72a175.68,175.68,0,0,0,26.44-41.17A179.57,179.57,0,0,0,384.46,261,169.21,169.21,0,0,1,374.22,280.38Z" transform="translate(-66.79 -178.67)"/><path class="cls-6" d="M354.22,291.66a19,19,0,0,1,2.56,1.48c.31.21.6.44.89.67a171.38,171.38,0,0,0,11.61-16.48c.56-.9,1.09-1.8,1.62-2.69,2-3.33,3.75-6.64,5.37-9.89q1.85-3.67,3.4-7.22a177.78,177.78,0,0,0,9.21-26.06,175.4,175.4,0,0,0-32.23,38,171.3,171.3,0,0,0-10.52,19.83,27.07,27.07,0,0,1,5.36,1.19A22,22,0,0,1,354.22,291.66Z" transform="translate(-66.79 -178.67)"/><path class="cls-6" d="M139.72,266.23a35.77,35.77,0,0,0-14.29-3c-25.14,0-45.59,26.9-45.59,60a77.53,77.53,0,0,0,.7,10.32h39.14c-.33-3.36-.5-6.81-.5-10.32C119.18,298.77,127.47,277.46,139.72,266.23Z" transform="translate(-66.79 -178.67)"/><path class="cls-6" d="M234.54,297l-.09-.24c-.28-.73-.56-1.46-.86-2.18s-.71-1.63-1.08-2.43l-.36-.72c-.56-1.16-1.14-2.3-1.76-3.4l-.08-.13c-.55-1-1.14-2-1.74-2.9a49.91,49.91,0,0,0-15.63-15.78,40.54,40.54,0,0,0-4.84-2.53,36.12,36.12,0,0,0-4.25-1.57,34.68,34.68,0,0,0-16.26-1c-1.07.18-2.13.4-3.18.68s-2.07.63-3.09,1c-.59.21-1.17.44-1.75.68a43.72,43.72,0,0,1,3.32,3.46,55.54,55.54,0,0,1,5.88,8.3,77.86,77.86,0,0,1,8,20q.64,2.53,1.16,5.17a103.08,103.08,0,0,1,1.89,19.75c0,3.51-.18,7-.51,10.32h39.15a77.53,77.53,0,0,0,.7-10.32,75.41,75.41,0,0,0-3.54-23C235.31,299.09,234.93,298,234.54,297Z" transform="translate(-66.79 -178.67)"/><path class="cls-6" d="M187.5,288.31c-3.42-8.14-8-14.73-13.3-19.06a28,28,0,0,0-2.5-1.83,27.05,27.05,0,0,0-2.8-1.59c-.52-.25-1.06-.49-1.59-.7a20.78,20.78,0,0,0-7.8-1.55,20.45,20.45,0,0,0-5.72.83,22.21,22.21,0,0,0-3.37,1.28,25.85,25.85,0,0,0-2.82,1.54,30.06,30.06,0,0,0-2.51,1.82C133.23,278.49,125,299.19,125,323.16a102.26,102.26,0,0,0,.53,10.32h68a102.26,102.26,0,0,0,.53-10.32,93.81,93.81,0,0,0-4.84-30.35Q188.42,290.49,187.5,288.31Z" transform="translate(-66.79 -178.67)"/><path class="cls-7" d="M353.64,339.61H67.15a84.38,84.38,0,0,0,84.32,81.72H300.79a84.38,84.38,0,0,0,84.33-81.72ZM217.28,377.69H139.82a16.67,16.67,0,0,1-2.76-.23c-6.5-1.07-11.4-5.84-11.4-11.57a10.2,10.2,0,0,1,1.11-4.6,11.86,11.86,0,0,1,1.92-2.68,13.44,13.44,0,0,1,2.29-1.93,15.9,15.9,0,0,1,8.84-2.59h97.11c.64,0,1.27.05,1.89.11,6.46.72,11.55,5.07,12.2,10.51a11.5,11.5,0,0,1,.07,1.18c0,6.52-6.34,11.8-14.16,11.8H217.28ZM314.88,394c0,4.34-4.23,7.87-9.45,7.87H240.62c-5.22,0-9.45-3.53-9.45-7.87h0c0-4.35,4.23-7.87,9.45-7.87h64.81c5.22,0,9.45,3.52,9.45,7.87Z" transform="translate(-66.79 -178.67)"/><polygon class="cls-8" points="290.72 154.81 287.44 154.81 283.85 154.81 281.08 154.81 260.44 154.81 256.16 154.81 251.85 154.81 209.85 154.81 206.44 154.81 202.46 154.81 177.55 154.81 177.04 154.81 174.63 154.81 173.18 154.81 171.69 154.81 166.34 154.81 162.23 154.81 161.99 154.81 158.43 154.81 157.75 154.81 132.55 154.81 129.64 154.81 126.72 154.81 109.34 154.81 106.41 154.81 103.49 154.81 81.91 154.81 78.98 154.81 76.06 154.81 58.72 154.81 55.8 154.81 52.89 154.81 13.74 154.81 10.81 154.81 7.89 154.81 0 154.81 0 160.94 0.36 160.94 8.89 160.94 11.85 160.94 14.83 160.94 53.68 160.94 56.6 160.94 59.53 160.94 77.06 160.94 80.02 160.94 82.99 160.94 102.39 160.94 105.35 160.94 108.32 160.94 125.91 160.94 128.84 160.94 131.76 160.94 160.18 160.94 164.64 160.94 169.28 160.94 170.61 160.94 173.59 160.94 176.55 160.94 198.32 160.94 202 160.94 205.32 160.94 248.91 160.94 253.53 160.94 258 160.94 279.61 160.94 281.08 160.94 283.51 160.94 286.85 160.94 318.32 160.94 319.06 160.94 319.06 154.81 290.72 154.81"/><path class="cls-8" d="M251.09,365.89a11.5,11.5,0,0,0-.07-1.18c-.65-5.44-5.74-9.79-12.2-10.51-.62-.06-1.25-.11-1.89-.11H139.82a15.9,15.9,0,0,0-8.84,2.59,13.44,13.44,0,0,0-2.29,1.93,11.86,11.86,0,0,0-1.92,2.68,10.2,10.2,0,0,0-1.11,4.6c0,5.73,4.9,10.5,11.4,11.57a16.67,16.67,0,0,0,2.76.23h97.11C244.75,377.69,251.09,372.41,251.09,365.89Z" transform="translate(-66.79 -178.67)"/><path class="cls-8" d="M305.43,386.14H240.62c-5.22,0-9.45,3.52-9.45,7.87h0c0,4.34,4.23,7.87,9.45,7.87h64.81c5.22,0,9.45-3.53,9.45-7.87h0C314.88,389.66,310.65,386.14,305.43,386.14Z" transform="translate(-66.79 -178.67)"/><path class="cls-6" d="M967.5,329.8h-9.27V311.26c0-9.26-5.08-14.35-14.05-14.35h-5.69c-9.27,0-14.36,5.09-14.36,14.35V329.8H889.45l10.47-17,51.43-84.93c4.49-7.48,2.39-14.36-5.08-19.44l-4.49-3c-7.47-4.78-14.65-3-19.43,4.79L839.51,346.85c-6,9.87-1.49,17,9.87,17h74.75v28.41c0,9,5.09,14.05,14.36,14.05h5.69c9,0,14.05-5.09,14.05-14.05V363.9h9.27c9,0,14-5.39,14-14.36v-5.68C981.55,334.89,976.47,329.8,967.5,329.8Z" transform="translate(-66.79 -178.67)"/><path class="cls-6" d="M1118.2,372.27h-62.5c10.47-14.35,29.31-34.09,37.08-42.47,23.63-26.31,33.2-37.68,35.89-58,2.09-12.86,0-34.09-14.35-49.94-11.07-12-32.6-21.23-58.62-16.75-26.31,4.19-48.74,27.21-53.23,66.39-.89,9.57,4.49,14.95,13.76,14.95h5.68c9,0,13.46-4.78,14.66-14.35,2.68-22.73,12-31.4,24.21-33.5,15.26-2.39,23.33,1.2,28.41,6.59,6,6.27,6,13.75,4.19,21.53-2.69,12.26-5.68,17.34-23.92,38-18.54,20.64-51.14,49.35-65.49,85.53-3.59,9.87,1.79,16.15,12,16.15H1118.2c9,0,14.36-5.09,14.36-14.05v-5.69C1132.56,377.35,1127.17,372.27,1118.2,372.27Z" transform="translate(-66.79 -178.67)"/><path class="cls-9" d="M571.36,203.36h-5.63c-9,0-14.06,5.06-14.06,14.07v70.9H545.2c-9,0-14.07,5.06-14.07,14.07V308c0,9,5.06,14.07,14.07,14.07h6.47v73.72c0,9,5.06,14.06,14.06,14.06h5.63c9,0,14.07-5.06,14.07-14.06V217.43C585.43,208.42,580.36,203.36,571.36,203.36Z" transform="translate(-66.79 -178.67)"/><path class="cls-9" d="M613.56,203.36h-5.62c-9,0-14.07,5.06-14.07,14.07V395.81c0,9,5.06,14.06,14.07,14.06h5.62c9,0,14.07-5.06,14.07-14.06V217.43C627.63,208.42,622.57,203.36,613.56,203.36Z" transform="translate(-66.79 -178.67)"/><path class="cls-9" d="M533.38,377.23l-1.13-1.41L506.09,344.6a13.75,13.75,0,0,0-5.63-4.5c9.28-35.74,14.35-72.88,16.6-104.67h11c9,0,14.07-5.06,14.07-14.06v-3.94c0-9-5.07-14.07-14.07-14.07H463c-9,0-14.07,5.06-14.07,14.07v3.94c0,9,5.07,14.06,14.07,14.06h22.79c-3.38,61.9-17.44,119.58-39.11,151.93-3.38,4.79-.84,9.57,7,14.35l6.47,3.94c7.88,4.79,15.2,3.1,19.14-5.35a404,404,0,0,0,15.19-39.11l6.76,31,.27,1.12a30.18,30.18,0,0,0,1.13,3.94,18,18,0,0,0,24.19,10.13A17.71,17.71,0,0,0,537,383.71,20.31,20.31,0,0,0,533.38,377.23Z" transform="translate(-66.79 -178.67)"/><path class="cls-9" d="M796.43,319.83H691.76c-9,0-14.06,4.79-14.06,13.51s5.06,13.51,14.06,13.51h85v9h-85c-9,0-14.06,3.38-14.06,9a5.94,5.94,0,0,0,.84,3.38,18,18,0,0,0-.84,5.63v22.51c0,8.72,5.06,13.5,14.06,13.5H796.43c9,0,14.07-4.78,14.07-13.5s-5.07-13.51-14.07-13.51h-85v-9h85c9,0,14.07-3.38,14.07-9a10.38,10.38,0,0,0-.56-2.81,17.61,17.61,0,0,0,.56-4.22v-18a13.25,13.25,0,0,0-.29-3.37,10.32,10.32,0,0,0,.29-3.1C810.5,324.62,805.43,319.83,796.43,319.83Z" transform="translate(-66.79 -178.67)"/><path class="cls-9" d="M790.52,313.37h5.63c9,0,14.06-5.07,14.06-14.07V217.43c0-9-5.06-14.07-14.06-14.07h-5.63c-9,0-14.06,5.06-14.06,14.07v17.72h-5.64c-9,0-14.06,5.06-14.06,14.07v5.62c0,9,5.06,14.07,14.06,14.07h5.64V299.3C776.46,308.3,781.52,313.37,790.52,313.37Z" transform="translate(-66.79 -178.67)"/><path class="cls-9" d="M686.14,303.52c7.87-10.41,14.35-19.13,19.41-27l11.25,21.94,2.53,4.23a52,52,0,0,0,3.95,5.06c6.75,7.32,19.13,6.75,25.88.28,7.88-7.59,8.16-19.69-.28-27-1.69-1.69-8.72-5.35-11-6.47L714,261.88c3.66-7.88,5.91-16.32,7.6-26.45h16.6c9,0,14.07-5.06,14.07-14.06v-3.94c0-9-5.07-14.07-14.07-14.07H719.33v-1.13c0-7.88-5.06-12.1-14.06-12.1h-3.94c-9,0-14.07,4.22-14.07,12.1v1.13H668.13c-9,0-14.07,5.06-14.07,14.07v3.94c0,9,5.07,14.06,14.07,14.06h17.73c-5.35,20-15.76,35.17-29,50.08-6.2,6.75-4.79,13.79,3.38,18.57l6.18,3.66C674,312.24,680.79,311.12,686.14,303.52Z" transform="translate(-66.79 -178.67)"/><path class="cls-6" d="M968.15,329.8h-9.27V311.26c0-9.26-5.08-14.35-14.06-14.35h-5.68c-9.27,0-14.36,5.09-14.36,14.35V329.8H890.1l10.46-17L952,227.83c4.49-7.48,2.39-14.36-5.08-19.44l-4.49-3c-7.47-4.78-14.65-3-19.43,4.79L840.16,346.85c-6,9.87-1.5,17,9.87,17h74.75v28.41c0,9,5.09,14.05,14.36,14.05h5.68c9,0,14.06-5.09,14.06-14.05V363.9h9.27c9,0,14.05-5.39,14.05-14.36v-5.68C982.2,334.89,977.12,329.8,968.15,329.8Z" transform="translate(-66.79 -178.67)"/><path class="cls-6" d="M1118.85,372.27h-62.5c10.47-14.35,29.31-34.09,37.08-42.47,23.63-26.31,33.19-37.68,35.89-58,2.09-12.86,0-34.09-14.35-49.94-11.07-12-32.6-21.23-58.62-16.75-26.31,4.19-48.75,27.21-53.23,66.39-.89,9.57,4.48,14.95,13.76,14.95h5.68c9,0,13.46-4.78,14.65-14.35,2.69-22.73,12-31.4,24.22-33.5,15.26-2.39,23.33,1.2,28.41,6.59,6,6.27,6,13.75,4.19,21.53-2.69,12.26-5.68,17.34-23.92,38-18.54,20.64-51.14,49.35-65.49,85.53-3.59,9.87,1.79,16.15,12,16.15h102.27c9,0,14.36-5.09,14.36-14.05v-5.69C1133.21,377.35,1127.82,372.27,1118.85,372.27Z" transform="translate(-66.79 -178.67)"/></svg>