<svg id="레이어_1" data-name="레이어 1" xmlns="http://www.w3.org/2000/svg" viewBox="0 0 1110.1 361.16"><defs><style>.cls-1{fill:#f2d149;}.cls-2{fill:#e94a48;}.cls-3{fill:#ed7552;}.cls-4{fill:#dcaa60;}.cls-5{fill:#0aa658;}.cls-6{fill:#b3cb48;}.cls-7{fill:#cc881d;}.cls-8{fill:#e6a84f;}.cls-9{fill:#a96232;}</style></defs><path class="cls-1" d="M276.83,244c2.77,4.35,5.38,8.46,7.83,12.44,4.33,7,7.35,12.35,9.62,17a76.48,76.48,0,0,1,9.6-10.11,32.93,32.93,0,0,0,2.3-6.37,77,77,0,0,0-.31-9.22A217.54,217.54,0,0,0,297,203.94c-11.23-36.48-31.14-68.18-52.78-84.52-7.14,21.09-7.48,50.09-1.15,80a179,179,0,0,1,25.69,31.8C271.53,235.6,274.23,239.86,276.83,244Z" transform="translate(-44.9 -119.42)"/><path class="cls-1" d="M305.87,261.54c.16-1.5.27-3.05.31-4.66a32.93,32.93,0,0,1-2.3,6.37C304.53,262.67,305.19,262.09,305.87,261.54Z" transform="translate(-44.9 -119.42)"/><path class="cls-2" d="M407.56,279.46c-.52-.52-1.06-1-1.59-1.46a32.39,32.39,0,0,0-4.16-3.21,28.05,28.05,0,0,0-17.3-4.57c-3,.16-5.77.24-8.46.24h-.61c-1.53,0-3-.08-4.52-.18l-.69,0c-1.69-.13-3.36-.32-5-.59-.77-.13-1.52-.32-2.28-.48a76.75,76.75,0,0,1-9.85-2.78c-2.21-.78-4.36-1.59-6.35-2.38-.51-.21-1-.4-1.53-.58a29,29,0,0,0-21.91,1.33c-.46.21-.91.39-1.37.62a45.62,45.62,0,0,0-7.92,5.1,60.46,60.46,0,0,0-8.6,8.34c-1,1.15-1.91,2.33-2.81,3.53s-1.79,2.46-2.62,3.72c.48,1.07.95,2.15,1.4,3.24,1,2.41,1.93,4.87,2.77,7.39a119.89,119.89,0,0,1,6,37.76c0,2.17-.08,4.32-.19,6.45a15.42,15.42,0,0,1-.49,6.26c-.09.89-.17,1.77-.28,2.65h37.07a178.3,178.3,0,0,1,30.24-31.65,175.23,175.23,0,0,1,40.35-25.35A50.67,50.67,0,0,0,407.56,279.46Z" transform="translate(-44.9 -119.42)"/><path class="cls-3" d="M405.51,204c4.57,1.57,17,4.76,28.77-1.26,12.81-6.49,22.63-20.56,26.55-26.89-7.41-.54-24.59-.89-37.37,5.64C411.57,187.58,406.93,199.43,405.51,204Z" transform="translate(-44.9 -119.42)"/><path class="cls-3" d="M400,201.65c2.42-4.22,8-15.72,4.37-28.5-3.95-13.8-15.84-26.16-21.25-31.26-2,7.21-5.64,24-1.72,37.75C385,192.37,395.73,199.31,400,201.65Z" transform="translate(-44.9 -119.42)"/><path class="cls-3" d="M445.21,211.59c-7.44-.54-24.58-.88-37.36,5.64-11.89,6.06-16.53,17.91-18,22.51,4.57,1.57,17,4.76,28.77-1.26C431.44,232,441.26,217.92,445.21,211.59Z" transform="translate(-44.9 -119.42)"/><path class="cls-3" d="M384.38,237.33c2.41-4.19,7.94-15.69,4.37-28.47-3.95-13.8-15.84-26.16-21.25-31.26-2,7.21-5.64,23.94-1.72,37.75C369.42,228.08,380.12,235,384.38,237.33Z" transform="translate(-44.9 -119.42)"/><path class="cls-3" d="M384.71,258.19a40.59,40.59,0,0,1,27.76,9.5c8-6.93,14-15.69,16.94-20.31-7.44-.54-24.55-.89-37.36,5.63A32.39,32.39,0,0,0,384.71,258.19Z" transform="translate(-44.9 -119.42)"/><path class="cls-3" d="M373.9,258.38a32.76,32.76,0,0,0-.8-13.81c-3.87-13.77-15.8-26.15-21.21-31.26-2,7.18-5.64,23.94-1.73,37.75.16.55.35,1.08.53,1.61.16.06.32.1.48.17,4.81,1.89,10.39,4,16,4.93A52.74,52.74,0,0,0,373.9,258.38Z" transform="translate(-44.9 -119.42)"/><path class="cls-3" d="M433.74,161.8c5.76-13.16,4.42-30.26,3.46-37.67-6.1,4.3-19.56,14.92-25.32,28.08-5.37,12.2-1.46,24.32.38,28.81C416.83,179.33,428.41,173.92,433.74,161.8Z" transform="translate(-44.9 -119.42)"/><path class="cls-3" d="M479.44,309.3a21.56,21.56,0,0,0-1.59-5c-.17-.37-.36-.73-.55-1.09a17.85,17.85,0,0,0-1.84-2.78l-.1-.14c-.18-.21-.38-.4-.56-.61a18.75,18.75,0,0,0-2.44-2.27c-.18-.14-.37-.25-.56-.38l-.47-.33a21.29,21.29,0,0,0-3.33-1.82,26.66,26.66,0,0,0-4.18-1.42,36,36,0,0,0-6.73-1c-1.5-.09-3-.1-4.65,0s-3.16.21-4.8.41a85.29,85.29,0,0,0-16.23,3.73q-2.82.93-5.71,2.05t-5.54,2.28A166.59,166.59,0,0,0,382,324.85a172.15,172.15,0,0,0-24.73,25H467.37A91.81,91.81,0,0,0,477.75,328c.48-1.59.88-3.14,1.21-4.66.23-1.08.42-2.14.57-3.19q.11-.69.18-1.38a36.12,36.12,0,0,0,.25-4.34A28.46,28.46,0,0,0,479.44,309.3Z" transform="translate(-44.9 -119.42)"/><path class="cls-4" d="M194.39,239c-1.18-15.24-7.15-29.61-16.54-39A35.48,35.48,0,0,0,156,189.23a28.47,28.47,0,0,0-22.58,8.06,9.85,9.85,0,0,0-2.78,8.45,10.18,10.18,0,0,0,5.16,7.42,9.91,9.91,0,0,0,11.9-1.69,8,8,0,0,1,6.64-2.15,15.27,15.27,0,0,1,9.25,4.84c5.67,5.67,9.4,14.41,10.53,24.05a37.49,37.49,0,0,1,8.79-1.06A38.17,38.17,0,0,1,194.39,239Z" transform="translate(-44.9 -119.42)"/><path class="cls-5" d="M326.63,137.06A265.08,265.08,0,0,0,299,181.13c2.63,6.45,5,13.11,7.17,20a227,227,0,0,1,9.2,45.65c.27,2.85.39,5.59.39,8.24.24-.13.47-.27.71-.39a49,49,0,0,1,4.62-2C313.48,217.84,326.63,137.06,326.63,137.06Z" transform="translate(-44.9 -119.42)"/><path class="cls-5" d="M248.25,219.22q-3.57-4.29-7.34-8.29-3.25-3.47-6.58-6.71c-1-1-2-2-3-2.93a266.44,266.44,0,0,0-48.43-35.84s23.81,38.73,38.48,73a59.68,59.68,0,0,1,23.44-.23c1.93.36,3.82.82,5.69,1.36,2,.59,4,1.25,6,2a67.06,67.06,0,0,1,11.14,5.73q-3.4-5.37-7-11.06A153.74,153.74,0,0,0,248.25,219.22Z" transform="translate(-44.9 -119.42)"/><path class="cls-6" d="M520.07,283.13a266.27,266.27,0,0,1-31.54,30c0,1.18.05,2.39,0,3.62a254,254,0,0,0,32.42-10.39,261,261,0,0,0,64.16-37.32A263.54,263.54,0,0,0,520.07,283.13Z" transform="translate(-44.9 -119.42)"/><path class="cls-6" d="M502.46,270.8c-3,4.88-6.24,9.67-9.6,14.38-1.84,2.58-3.72,5.14-5.67,7.66-1.12,1.47-2.28,2.92-3.43,4.36.38.58.74,1.17,1.08,1.78a28.71,28.71,0,0,1,1.94,4.43q7-5.87,13.47-12.18c2.77-2.69,5.48-5.42,8.12-8.22,1.94-2.05,3.9-4.07,5.76-6.18.32-.36.61-.72.93-1.08a261.65,261.65,0,0,0,39.34-61.28A268.23,268.23,0,0,0,517.7,242,252.19,252.19,0,0,1,502.46,270.8Z" transform="translate(-44.9 -119.42)"/><path class="cls-6" d="M472.69,287.59a28,28,0,0,1,3.81,2.2c.46.31.9.65,1.33,1a256.52,256.52,0,0,0,17.28-24.52c.83-1.34,1.62-2.67,2.41-4,2.92-4.95,5.58-9.88,8-14.71,1.82-3.65,3.52-7.24,5.07-10.74A266.85,266.85,0,0,0,524.28,198a261.18,261.18,0,0,0-48,56.63,255.57,255.57,0,0,0-15.65,29.51,40.89,40.89,0,0,1,8,1.77A32.72,32.72,0,0,1,472.69,287.59Z" transform="translate(-44.9 -119.42)"/><path class="cls-6" d="M153.44,249.73a53.44,53.44,0,0,0-21.27-4.48c-37.41,0-67.85,40-67.85,89.22a115.39,115.39,0,0,0,1,15.36h58.26c-.49-5-.75-10.13-.75-15.36C122.87,298.16,135.21,266.46,153.44,249.73Z" transform="translate(-44.9 -119.42)"/><path class="cls-6" d="M294.57,295.53c0-.12-.09-.24-.14-.36-.41-1.09-.83-2.17-1.28-3.23-.52-1.23-1-2.43-1.6-3.62-.17-.36-.36-.71-.53-1.07-.84-1.73-1.71-3.42-2.64-5.07l-.1-.19c-.83-1.48-1.7-2.92-2.59-4.32a74.44,74.44,0,0,0-23.27-23.48,58.91,58.91,0,0,0-7.21-3.77,55.09,55.09,0,0,0-6.32-2.34,51.57,51.57,0,0,0-24.19-1.5c-1.6.28-3.18.6-4.74,1s-3.09.93-4.6,1.48c-.88.32-1.74.65-2.6,1a65.49,65.49,0,0,1,4.94,5.15,82.29,82.29,0,0,1,8.75,12.34,116.15,116.15,0,0,1,11.94,29.79c.64,2.52,1.23,5.08,1.74,7.7a153,153,0,0,1,2.8,29.39c0,5.23-.26,10.36-.75,15.36h58.26a115.39,115.39,0,0,0,1-15.36,111.89,111.89,0,0,0-5.26-34.22C295.71,298.65,295.15,297.08,294.57,295.53Z" transform="translate(-44.9 -119.42)"/><path class="cls-6" d="M224.55,282.6c-5.08-12.11-11.88-21.93-19.79-28.36a39.45,39.45,0,0,0-3.73-2.73,37.37,37.37,0,0,0-4.15-2.36c-.79-.38-1.58-.73-2.38-1.05A30.12,30.12,0,0,0,174.38,247a34,34,0,0,0-5,1.9,37.2,37.2,0,0,0-4.18,2.3,42.6,42.6,0,0,0-3.75,2.7C143.79,268,131.5,298.8,131.5,334.47a151.09,151.09,0,0,0,.79,15.36H233.51a151.09,151.09,0,0,0,.79-15.36,139.83,139.83,0,0,0-7.19-45.17Q225.91,285.85,224.55,282.6Z" transform="translate(-44.9 -119.42)"/><path class="cls-7" d="M471.84,359H45.44a125.57,125.57,0,0,0,125.5,121.63H393.18A125.58,125.58,0,0,0,518.68,359Zm-203,56.68H153.59a25.11,25.11,0,0,1-4.1-.34c-9.68-1.59-17-8.69-17-17.22a15,15,0,0,1,1.67-6.85,17.41,17.41,0,0,1,2.84-4,19.41,19.41,0,0,1,3.41-2.87,23.72,23.72,0,0,1,13.16-3.86H298.12a25.86,25.86,0,0,1,2.81.17c9.62,1.08,17.2,7.54,18.16,15.64a14.46,14.46,0,0,1,.11,1.76c0,9.7-9.44,17.56-21.08,17.56H268.88Zm145.26,24.3c0,6.47-6.3,11.72-14.07,11.72H303.61c-7.76,0-14.06-5.25-14.06-11.72h0c0-6.47,6.3-11.72,14.06-11.72h96.46c7.77,0,14.07,5.25,14.07,11.72Z" transform="translate(-44.9 -119.42)"/><polygon class="cls-8" points="432.69 230.41 427.8 230.41 422.47 230.41 418.34 230.41 387.62 230.41 381.25 230.41 374.84 230.41 312.33 230.41 307.26 230.41 301.32 230.41 264.25 230.41 263.5 230.41 259.9 230.41 257.75 230.41 255.54 230.41 247.57 230.41 241.45 230.41 241.1 230.41 235.79 230.41 234.79 230.41 197.28 230.41 192.94 230.41 188.61 230.41 162.74 230.41 158.38 230.41 154.03 230.41 121.91 230.41 117.55 230.41 113.2 230.41 87.39 230.41 83.05 230.41 78.72 230.41 20.46 230.41 16.09 230.41 11.74 230.41 0 230.41 0 239.53 0.54 239.53 13.24 239.53 17.64 239.53 22.07 239.53 79.89 239.53 84.25 239.53 88.61 239.53 114.69 239.53 119.09 239.53 123.52 239.53 152.39 239.53 156.79 239.53 161.22 239.53 187.39 239.53 191.75 239.53 196.11 239.53 238.41 239.53 245.04 239.53 251.95 239.53 253.93 239.53 258.36 239.53 262.76 239.53 295.16 239.53 300.64 239.53 305.59 239.53 370.46 239.53 377.33 239.53 384 239.53 416.16 239.53 418.34 239.53 421.95 239.53 426.93 239.53 473.77 239.53 474.88 239.53 474.88 230.41 432.69 230.41"/><path class="cls-8" d="M319.2,398.07a14.46,14.46,0,0,0-.11-1.76c-1-8.1-8.54-14.56-18.16-15.64a25.86,25.86,0,0,0-2.81-.17H153.59a23.72,23.72,0,0,0-13.16,3.86,19.41,19.41,0,0,0-3.41,2.87,17.41,17.41,0,0,0-2.84,4,15,15,0,0,0-1.67,6.85c0,8.53,7.3,15.63,17,17.22a25.11,25.11,0,0,0,4.1.34H298.12C309.76,415.63,319.2,407.77,319.2,398.07Z" transform="translate(-44.9 -119.42)"/><path class="cls-8" d="M400.07,428.2H303.61c-7.76,0-14.06,5.25-14.06,11.72h0c0,6.47,6.3,11.72,14.06,11.72h96.46c7.77,0,14.07-5.25,14.07-11.72h0C414.14,433.45,407.84,428.2,400.07,428.2Z" transform="translate(-44.9 -119.42)"/><path class="cls-6" d="M1024.93,323.39h-7.28V308.84c0-7.27-4-11.27-11-11.27h-4.46c-7.28,0-11.27,4-11.27,11.27v14.55H963.66L971.88,310l40.37-66.66c3.52-5.87,1.88-11.27-4-15.26l-3.52-2.34c-5.87-3.76-11.5-2.35-15.25,3.75l-65,107.28c-4.7,7.74-1.18,13.38,7.74,13.38h58.68v22.3c0,7,4,11,11.27,11h4.46c7,0,11-4,11-11v-22.3h7.28c7,0,11-4.23,11-11.27v-4.46C1036,327.39,1032,323.39,1024.93,323.39Z" transform="translate(-44.9 -119.42)"/><path class="cls-6" d="M1143.22,356.73h-49.06c8.22-11.27,23-26.76,29.11-33.34,18.55-20.65,26-29.57,28.17-45.53,1.64-10.1,0-26.76-11.27-39.2-8.69-9.4-25.58-16.67-46-13.15-20.65,3.29-38.26,21.36-41.78,52.11-.7,7.52,3.52,11.74,10.8,11.74h4.46c7,0,10.56-3.76,11.5-11.27,2.11-17.84,9.39-24.64,19-26.29,12-1.88,18.31.94,22.3,5.17,4.7,4.92,4.7,10.79,3.29,16.9-2.11,9.62-4.46,13.61-18.78,29.81-14.55,16.2-40.14,38.73-51.4,67.13-2.82,7.75,1.4,12.68,9.38,12.68h80.28c7,0,11.27-4,11.27-11V368C1154.49,360.72,1150.26,356.73,1143.22,356.73Z" transform="translate(-44.9 -119.42)"/><path class="cls-9" d="M714,224.14h-4.42c-7.06,0-11,4-11,11v55.66h-5.08c-7.07,0-11,4-11,11v4.42c0,7.06,4,11,11,11h5.08V375.2c0,7.07,4,11,11,11H714c7.07,0,11-4,11-11v-140C725,228.11,721.05,224.14,714,224.14Z" transform="translate(-44.9 -119.42)"/><rect class="cls-9" x="686.75" y="104.72" width="26.5" height="162.1" rx="11.04"/><path class="cls-9" d="M684.17,360.62l-.89-1.1L662.75,335a10.85,10.85,0,0,0-4.42-3.54c7.29-28,11.26-57.2,13-82.15H680c7.07,0,11-4,11-11v-3.1c0-7.07-4-11-11-11H629c-7.06,0-11,4-11,11v3.1c0,7.06,4,11,11,11h17.9c-2.66,48.58-13.7,93.86-30.7,119.26-2.65,3.75-.66,7.5,5.52,11.26l5.07,3.09c6.19,3.76,11.93,2.43,15-4.2A313.1,313.1,0,0,0,653.69,348l5.3,24.3.22.88a22.28,22.28,0,0,0,.88,3.09,14.14,14.14,0,0,0,19,8A13.92,13.92,0,0,0,687,365.7,16.33,16.33,0,0,0,684.17,360.62Z" transform="translate(-44.9 -119.42)"/><path class="cls-9" d="M890.65,315.57H808.49c-7.07,0-11,3.76-11,10.6s4,10.6,11,10.6h66.7v7.07h-66.7c-7.07,0-11,2.65-11,7.06a4.74,4.74,0,0,0,.66,2.66,14.25,14.25,0,0,0-.66,4.41v17.67c0,6.85,4,10.6,11,10.6h82.16c7.06,0,11-3.75,11-10.6s-4-10.6-11-10.6H824V358h66.7c7.06,0,11-2.65,11-7.07a7.82,7.82,0,0,0-.44-2.2,13.49,13.49,0,0,0,.44-3.32V331.25a10.79,10.79,0,0,0-.22-2.65,8.32,8.32,0,0,0,.22-2.43C901.69,319.33,897.71,315.57,890.65,315.57Z" transform="translate(-44.9 -119.42)"/><path class="cls-9" d="M886,310.49h4.42c7.06,0,11-4,11-11V235.18c0-7.07-4-11-11-11H886c-7.07,0-11,4-11,11v13.91h-4.42c-7.07,0-11,4-11,11v4.41c0,7.07,4,11.05,11,11.05H875v23.85C875,306.52,878.94,310.49,886,310.49Z" transform="translate(-44.9 -119.42)"/><path class="cls-9" d="M804.07,302.76c6.19-8.17,11.27-15,15.24-21.2l8.84,17.22,2,3.32a41.08,41.08,0,0,0,3.1,4c5.29,5.74,15,5.29,20.31.22,6.19-6,6.41-15.46-.22-21.2-1.32-1.33-6.84-4.2-8.61-5.09l-18.77-9.93a78.94,78.94,0,0,0,6-20.76h13c7.07,0,11.05-4,11.05-11v-3.1c0-7.07-4-11-11.05-11h-14.8v-.88c0-6.19-4-9.5-11-9.5H816c-7.06,0-11,3.31-11,9.5v.88h-15c-7.07,0-11,4-11,11v3.1c0,7.06,4,11,11,11h13.91c-4.19,15.68-12.36,27.6-22.74,39.31-4.86,5.3-3.76,10.82,2.65,14.58l4.85,2.87C794.58,309.61,799.88,308.73,804.07,302.76Z" transform="translate(-44.9 -119.42)"/><path class="cls-6" d="M1025.44,323.39h-7.28V308.84c0-7.27-4-11.27-11-11.27h-4.46c-7.28,0-11.27,4-11.27,11.27v14.55H964.17L972.39,310l40.37-66.66c3.52-5.87,1.88-11.27-4-15.26l-3.52-2.34c-5.87-3.76-11.5-2.35-15.25,3.75L925,336.78c-4.7,7.74-1.18,13.38,7.74,13.38H991.4v22.3c0,7,4,11,11.27,11h4.46c7,0,11-4,11-11v-22.3h7.28c7,0,11-4.23,11-11.27v-4.46C1036.47,327.39,1032.48,323.39,1025.44,323.39Z" transform="translate(-44.9 -119.42)"/><path class="cls-6" d="M1143.73,356.73h-49.06c8.22-11.27,23-26.76,29.11-33.34,18.55-20.65,26-29.57,28.17-45.53,1.64-10.1,0-26.76-11.27-39.2-8.69-9.4-25.58-16.67-46-13.15-20.65,3.29-38.26,21.36-41.78,52.11-.7,7.52,3.52,11.74,10.8,11.74h4.46c7,0,10.56-3.76,11.5-11.27,2.11-17.84,9.39-24.64,19-26.29,12-1.88,18.31.94,22.3,5.17,4.7,4.92,4.7,10.79,3.29,16.9-2.11,9.62-4.46,13.61-18.78,29.81-14.55,16.2-40.14,38.73-51.41,67.13-2.81,7.75,1.41,12.68,9.39,12.68h80.28c7,0,11.27-4,11.27-11V368C1155,360.72,1150.77,356.73,1143.73,356.73Z" transform="translate(-44.9 -119.42)"/></svg>