<svg id="레이어_1" data-name="레이어 1" xmlns="http://www.w3.org/2000/svg" viewBox="0 0 540.19 361.16"><defs><style>.cls-1{fill:#f2d149;}.cls-2{fill:#e94a48;}.cls-3{fill:#ed7552;}.cls-4{fill:#dcaa60;}.cls-5{fill:#0aa658;}.cls-6{fill:#b3cb48;}.cls-7{fill:#cc881d;}.cls-8{fill:#e6a84f;}</style></defs><path class="cls-1" d="M57.58,39.54C60.35,43.89,63,48,65.41,52c4.33,7,7.35,12.35,9.62,17a75.94,75.94,0,0,1,9.6-10.12,32.83,32.83,0,0,0,2.3-6.36,76.88,76.88,0,0,0-.31-9.22A217.26,217.26,0,0,0,77.79-.47C66.56-36.95,46.65-68.66,25-85,17.87-63.9,17.53-34.9,23.86-5A179.55,179.55,0,0,1,49.56,26.8C52.28,31.19,55,35.44,57.58,39.54Z" transform="translate(174.35 84.99)"/><path class="cls-1" d="M86.62,57.13c.16-1.5.27-3.05.31-4.66a32.83,32.83,0,0,1-2.3,6.36C85.28,58.26,85.94,57.68,86.62,57.13Z" transform="translate(174.35 84.99)"/><path class="cls-2" d="M188.31,75.05c-.52-.52-1.06-1-1.59-1.47a34.29,34.29,0,0,0-4.16-3.21,28.18,28.18,0,0,0-17.3-4.57c-3,.17-5.77.25-8.46.24h-.61c-1.53,0-3-.08-4.52-.18l-.69,0c-1.69-.14-3.36-.32-5-.59-.77-.13-1.52-.33-2.28-.48A76.76,76.76,0,0,1,133.81,62c-2.21-.78-4.36-1.59-6.35-2.38-.51-.2-1-.39-1.53-.57A29,29,0,0,0,104,60.36c-.46.21-.91.39-1.37.61a46.67,46.67,0,0,0-7.92,5.11,60.46,60.46,0,0,0-8.6,8.34c-1,1.14-1.91,2.33-2.81,3.53s-1.79,2.46-2.62,3.72c.48,1.07,1,2.14,1.4,3.24,1,2.41,1.93,4.86,2.77,7.39a119.89,119.89,0,0,1,6,37.76c0,2.17-.08,4.31-.19,6.45a15.62,15.62,0,0,1-.48,6.26c-.1.88-.18,1.77-.29,2.65H127a178.3,178.3,0,0,1,30.24-31.65,174.89,174.89,0,0,1,40.35-25.35A50.67,50.67,0,0,0,188.31,75.05Z" transform="translate(174.35 84.99)"/><path class="cls-3" d="M186.26-.38c4.57,1.57,17,4.76,28.77-1.27,12.81-6.48,22.63-20.56,26.55-26.89-7.41-.53-24.59-.88-37.36,5.64C192.32-16.84,187.68-5,186.26-.38Z" transform="translate(174.35 84.99)"/><path class="cls-3" d="M180.74-2.76c2.42-4.22,8-15.73,4.37-28.5-4-13.81-15.84-26.16-21.25-31.26-2,7.21-5.63,24-1.72,37.74C165.74-12,176.48-5.1,180.74-2.76Z" transform="translate(174.35 84.99)"/><path class="cls-3" d="M226,7.18c-7.44-.54-24.58-.89-37.36,5.63-11.89,6.06-16.53,17.92-17.95,22.52,4.57,1.57,17,4.76,28.77-1.27C212.19,27.58,222,13.5,226,7.18Z" transform="translate(174.35 84.99)"/><path class="cls-3" d="M165.13,32.91c2.42-4.18,7.94-15.69,4.37-28.46-3.95-13.81-15.84-26.16-21.25-31.26-2,7.21-5.64,23.94-1.72,37.74C150.17,23.67,160.87,30.61,165.13,32.91Z" transform="translate(174.35 84.99)"/><path class="cls-3" d="M165.46,53.78a40.58,40.58,0,0,1,27.76,9.49c8-6.92,14.05-15.68,16.94-20.31-7.44-.54-24.55-.88-37.36,5.64A31.78,31.78,0,0,0,165.46,53.78Z" transform="translate(174.35 84.99)"/><path class="cls-3" d="M154.65,54a32.72,32.72,0,0,0-.8-13.8C150,26.39,138.05,14,132.64,8.9c-2,7.17-5.64,23.94-1.73,37.74.16.56.35,1.08.53,1.61.16.07.32.11.48.17,4.81,1.9,10.39,4,16,4.93A49.37,49.37,0,0,0,154.65,54Z" transform="translate(174.35 84.99)"/><path class="cls-3" d="M214.5-42.61c5.75-13.16,4.41-30.27,3.45-37.67-6.1,4.3-19.56,14.92-25.32,28.08-5.37,12.2-1.46,24.32.39,28.8C197.58-25.08,209.16-30.49,214.5-42.61Z" transform="translate(174.35 84.99)"/><path class="cls-3" d="M260.19,104.89a21.09,21.09,0,0,0-1.59-5c-.17-.37-.36-.74-.55-1.09A17.94,17.94,0,0,0,256.21,96a1.13,1.13,0,0,1-.1-.13c-.18-.22-.38-.4-.56-.61A18.75,18.75,0,0,0,253.11,93c-.18-.14-.37-.26-.56-.39l-.47-.32a21.29,21.29,0,0,0-3.33-1.82,25.67,25.67,0,0,0-4.18-1.42,35.15,35.15,0,0,0-6.73-1c-1.5-.09-3-.1-4.64,0s-3.17.2-4.81.4a86.13,86.13,0,0,0-16.23,3.74c-1.88.61-3.78,1.3-5.71,2s-3.67,1.46-5.54,2.29a166.53,166.53,0,0,0-38.2,23.92,172.62,172.62,0,0,0-24.72,25H248.12a91.68,91.68,0,0,0,10.38-21.81c.48-1.58.88-3.13,1.21-4.65.23-1.08.42-2.15.57-3.19.07-.46.13-.93.18-1.38a36.12,36.12,0,0,0,.25-4.34A28.37,28.37,0,0,0,260.19,104.89Z" transform="translate(174.35 84.99)"/><path class="cls-4" d="M-24.86,34.55C-26,19.3-32,4.94-41.4-4.48a35.52,35.52,0,0,0-21.86-10.7A28.43,28.43,0,0,0-85.84-7.12a9.85,9.85,0,0,0-2.78,8.45,10.18,10.18,0,0,0,5.16,7.42,9.92,9.92,0,0,0,11.9-1.69A8,8,0,0,1-64.92,4.9a15.37,15.37,0,0,1,9.25,4.84c5.67,5.68,9.4,14.42,10.53,24.06a37.49,37.49,0,0,1,8.79-1.06A37.86,37.86,0,0,1-24.86,34.55Z" transform="translate(174.35 84.99)"/><path class="cls-5" d="M107.38-67.36A265.46,265.46,0,0,0,79.79-23.28c2.63,6.44,5,13.11,7.17,20a227.28,227.28,0,0,1,9.2,45.66c.27,2.84.39,5.59.39,8.24.24-.13.47-.28.71-.4,1.53-.76,3.07-1.42,4.62-2C94.24,13.43,107.38-67.36,107.38-67.36Z" transform="translate(174.35 84.99)"/><path class="cls-5" d="M29,14.81q-3.57-4.29-7.34-8.29Q18.4,3.06,15.08-.19c-1-1-2-2-3-2.93A265.86,265.86,0,0,0-36.39-39S-12.58-.23,2.09,34a61.08,61.08,0,0,1,12.29-1.27,60.82,60.82,0,0,1,11.16,1c1.92.36,3.81.82,5.68,1.36a63.35,63.35,0,0,1,6,2,66.72,66.72,0,0,1,11.14,5.74c-2.27-3.59-4.6-7.26-7-11.06A152.81,152.81,0,0,0,29,14.81Z" transform="translate(174.35 84.99)"/><path class="cls-6" d="M300.82,78.71a264.66,264.66,0,0,1-31.54,30c0,1.19.05,2.4,0,3.63A255.13,255.13,0,0,0,301.69,102a261.3,261.3,0,0,0,64.16-37.32A263.43,263.43,0,0,0,300.82,78.71Z" transform="translate(174.35 84.99)"/><path class="cls-6" d="M283.21,66.38c-3,4.89-6.24,9.68-9.59,14.38-1.85,2.59-3.73,5.15-5.68,7.67-1.12,1.47-2.27,2.92-3.43,4.36.38.58.74,1.17,1.08,1.78a29.64,29.64,0,0,1,2,4.42c4.64-3.9,9.12-8,13.46-12.18q4.15-4,8.12-8.21c1.94-2,3.9-4.08,5.76-6.18.32-.36.62-.72.93-1.08a261.86,261.86,0,0,0,39.34-61.28,268,268,0,0,0-36.7,27.52A249.69,249.69,0,0,1,283.21,66.38Z" transform="translate(174.35 84.99)"/><path class="cls-6" d="M253.44,83.17a29.13,29.13,0,0,1,3.81,2.21c.46.31.9.65,1.33,1a255.4,255.4,0,0,0,17.28-24.53c.83-1.33,1.62-2.67,2.41-4,2.92-5,5.58-9.88,8-14.72,1.83-3.64,3.52-7.23,5.07-10.74A267.85,267.85,0,0,0,305-6.4a260.64,260.64,0,0,0-48,56.63A257.13,257.13,0,0,0,241.4,79.74a40.89,40.89,0,0,1,8,1.77A32.68,32.68,0,0,1,253.44,83.17Z" transform="translate(174.35 84.99)"/><path class="cls-6" d="M-65.81,45.32a53.44,53.44,0,0,0-21.27-4.48c-37.41,0-67.85,40-67.85,89.22a115.39,115.39,0,0,0,1,15.36h58.26c-.49-5-.75-10.13-.75-15.36C-96.38,93.75-84,62-65.81,45.32Z" transform="translate(174.35 84.99)"/><path class="cls-6" d="M75.32,91.12c0-.12-.09-.24-.14-.36-.41-1.09-.83-2.17-1.28-3.24s-1.05-2.42-1.6-3.61c-.17-.36-.36-.71-.53-1.07-.84-1.73-1.71-3.42-2.63-5.07a1.28,1.28,0,0,1-.11-.2c-.83-1.47-1.7-2.91-2.59-4.31A74.34,74.34,0,0,0,43.17,49.78,58.91,58.91,0,0,0,36,46a55.64,55.64,0,0,0-6.31-2.34,52.82,52.82,0,0,0-15.27-2.29,51.84,51.84,0,0,0-8.93.79c-1.6.27-3.18.6-4.74,1s-3.09.93-4.6,1.49c-.88.32-1.74.65-2.6,1a65.33,65.33,0,0,1,4.94,5.14A82.4,82.4,0,0,1,7.2,63.18,115.64,115.64,0,0,1,19.14,93c.65,2.51,1.23,5.08,1.74,7.69a153.09,153.09,0,0,1,2.8,29.4c0,5.23-.26,10.35-.75,15.36H81.19a115.39,115.39,0,0,0,1-15.36A111.89,111.89,0,0,0,77,95.84C76.46,94.24,75.9,92.67,75.32,91.12Z" transform="translate(174.35 84.99)"/><path class="cls-6" d="M5.3,78.19C.22,66.08-6.58,56.26-14.49,49.82a43.31,43.31,0,0,0-3.73-2.73,38.94,38.94,0,0,0-4.15-2.35c-.79-.39-1.58-.74-2.38-1.06a31.11,31.11,0,0,0-11.6-2.3,30.64,30.64,0,0,0-8.52,1.24,34.4,34.4,0,0,0-5,1.9,39,39,0,0,0-4.18,2.3,42.6,42.6,0,0,0-3.75,2.7c-17.64,14.06-29.93,44.87-29.93,80.54A151.09,151.09,0,0,0-87,145.42H14.26a151.09,151.09,0,0,0,.79-15.36A139.78,139.78,0,0,0,7.86,84.89C7.06,82.59,6.21,80.35,5.3,78.19Z" transform="translate(174.35 84.99)"/><path class="cls-7" d="M252.59,154.54h-426.4A125.58,125.58,0,0,0-48.31,276.17H173.93a125.59,125.59,0,0,0,125.5-121.63Zm-203,56.68H-65.66a25.11,25.11,0,0,1-4.1-.34c-9.68-1.59-17-8.7-17-17.23a15,15,0,0,1,1.66-6.84,17.19,17.19,0,0,1,2.84-4A19.78,19.78,0,0,1-78.82,180a23.72,23.72,0,0,1,13.16-3.86H78.87a25.86,25.86,0,0,1,2.81.17c9.62,1.07,17.2,7.54,18.16,15.63a14.72,14.72,0,0,1,.11,1.76c0,9.71-9.44,17.57-21.08,17.57H49.63Zm145.26,24.29c0,6.48-6.3,11.73-14.07,11.73H84.36c-7.76,0-14.06-5.25-14.06-11.73h0c0-6.47,6.3-11.72,14.06-11.72h96.46c7.77,0,14.07,5.25,14.07,11.72Z" transform="translate(174.35 84.99)"/><polygon class="cls-8" points="432.69 230.41 427.8 230.41 422.47 230.41 418.34 230.41 387.62 230.41 381.25 230.41 374.84 230.41 312.33 230.41 307.26 230.41 301.32 230.41 264.25 230.41 263.5 230.41 259.9 230.41 257.75 230.41 255.54 230.41 247.57 230.41 241.45 230.41 241.1 230.41 235.79 230.41 234.79 230.41 197.28 230.41 192.94 230.41 188.61 230.41 162.74 230.41 158.38 230.41 154.03 230.41 121.91 230.41 117.55 230.41 113.2 230.41 87.39 230.41 83.05 230.41 78.72 230.41 20.46 230.41 16.09 230.41 11.74 230.41 0 230.41 0 239.53 0.54 239.53 13.24 239.53 17.64 239.53 22.07 239.53 79.89 239.53 84.25 239.53 88.61 239.53 114.69 239.53 119.09 239.53 123.52 239.53 152.39 239.53 156.79 239.53 161.22 239.53 187.39 239.53 191.75 239.53 196.11 239.53 238.41 239.53 245.04 239.53 251.95 239.53 253.93 239.53 258.36 239.53 262.76 239.53 295.16 239.53 300.64 239.53 305.59 239.53 370.46 239.53 377.33 239.53 384 239.53 416.16 239.53 418.34 239.53 421.95 239.53 426.93 239.53 473.77 239.53 474.88 239.53 474.88 230.41 432.69 230.41"/><path class="cls-8" d="M100,193.65a14.72,14.72,0,0,0-.11-1.76c-1-8.09-8.54-14.56-18.16-15.63a25.86,25.86,0,0,0-2.81-.17H-65.66A23.72,23.72,0,0,0-78.82,180a19.78,19.78,0,0,0-3.41,2.87,17.19,17.19,0,0,0-2.84,4,15,15,0,0,0-1.66,6.84c0,8.53,7.29,15.64,17,17.23a25.11,25.11,0,0,0,4.1.34H78.87C90.51,211.22,100,203.36,100,193.65Z" transform="translate(174.35 84.99)"/><path class="cls-8" d="M180.82,223.79H84.36c-7.76,0-14.06,5.25-14.06,11.72h0c0,6.48,6.3,11.73,14.06,11.73h96.46c7.77,0,14.07-5.25,14.07-11.73h0C194.89,229,188.59,223.79,180.82,223.79Z" transform="translate(174.35 84.99)"/></svg>