<svg id="레이어_1" data-name="레이어 1" xmlns="http://www.w3.org/2000/svg" viewBox="0 0 72.66 74.01"><defs><style>.cls-1{fill:#a96232;}.cls-2{fill:#f2d149;}.cls-3{fill:#e94a48;}.cls-4{fill:#ed7552;}.cls-5{fill:#dcaa60;}.cls-6{fill:#0aa658;}.cls-7{fill:#b3cb48;}.cls-8{fill:#cc881d;}.cls-9{fill:#e6a84f;}</style></defs><path class="cls-1" d="M71.63,115.08h-.47A1.08,1.08,0,0,0,70,116.27v6h-.55a1.07,1.07,0,0,0-1.19,1.18v.48a1.08,1.08,0,0,0,1.19,1.19H70v6.22a1.08,1.08,0,0,0,1.19,1.19h.47a1.08,1.08,0,0,0,1.19-1.19V116.27A1.08,1.08,0,0,0,71.63,115.08Z" transform="translate(-59.42 -58.51)"/><rect class="cls-1" x="14.11" y="56.57" width="2.85" height="17.44" rx="1.19"/><path class="cls-1" d="M68.42,129.76l-.09-.12L66.12,127a1.13,1.13,0,0,0-.48-.38,49.6,49.6,0,0,0,1.41-8.84H68a1.08,1.08,0,0,0,1.19-1.19v-.33A1.08,1.08,0,0,0,68,115.08H62.48a1.07,1.07,0,0,0-1.18,1.19v.33a1.07,1.07,0,0,0,1.18,1.19h1.93c-.29,5.23-1.47,10.1-3.3,12.83-.29.4-.07.81.59,1.21l.55.33a1,1,0,0,0,1.61-.45,32.32,32.32,0,0,0,1.29-3.3l.57,2.61,0,.1a3.4,3.4,0,0,0,.09.33,1.53,1.53,0,0,0,2,.86,1.49,1.49,0,0,0,.85-2A1.83,1.83,0,0,0,68.42,129.76Z" transform="translate(-59.42 -58.51)"/><path class="cls-1" d="M90.64,124.92H81.8a1.14,1.14,0,1,0,0,2.28H89V128H81.8c-.76,0-1.19.28-1.19.76a.47.47,0,0,0,.07.28,1.51,1.51,0,0,0-.07.48v1.9a1.05,1.05,0,0,0,1.19,1.14h8.84a1.14,1.14,0,1,0,0-2.28H83.46v-.76h7.18c.76,0,1.19-.29,1.19-.76a1,1,0,0,0,0-.24,1.55,1.55,0,0,0,0-.36V126.6a.89.89,0,0,0,0-.28.72.72,0,0,0,0-.26A1.05,1.05,0,0,0,90.64,124.92Z" transform="translate(-59.42 -58.51)"/><path class="cls-1" d="M90.14,124.37h.47a1.08,1.08,0,0,0,1.19-1.19v-6.91a1.08,1.08,0,0,0-1.19-1.19h-.47A1.08,1.08,0,0,0,89,116.27v1.5h-.47A1.07,1.07,0,0,0,87.29,119v.48a1.08,1.08,0,0,0,1.19,1.19H89v2.56A1.08,1.08,0,0,0,90.14,124.37Z" transform="translate(-59.42 -58.51)"/><path class="cls-1" d="M81.32,123.54c.67-.88,1.22-1.62,1.64-2.28l1,1.85.22.36c.05.09.24.31.33.43a1.6,1.6,0,0,0,2.19,0,1.52,1.52,0,0,0,0-2.28,6.39,6.39,0,0,0-.92-.55l-2-1.07a8.34,8.34,0,0,0,.64-2.23h1.4a1.08,1.08,0,0,0,1.19-1.19v-.33a1.08,1.08,0,0,0-1.19-1.19H84.13V115c0-.67-.43-1-1.19-1h-.33c-.76,0-1.19.36-1.19,1v.09H79.8a1.07,1.07,0,0,0-1.18,1.19v.33a1.07,1.07,0,0,0,1.18,1.19h1.5A10.16,10.16,0,0,1,78.85,122a.93.93,0,0,0,.29,1.57l.52.31A1.12,1.12,0,0,0,81.32,123.54Z" transform="translate(-59.42 -58.51)"/><path class="cls-2" d="M90.62,75.26c.37.59.72,1.14,1,1.68.58.94,1,1.66,1.29,2.28a10.38,10.38,0,0,1,1.29-1.36,3.68,3.68,0,0,0,.31-.86,8.79,8.79,0,0,0,0-1.24,29.75,29.75,0,0,0-1.18-5.88c-1.52-4.91-4.19-9.17-7.1-11.37a21.22,21.22,0,0,0-.16,10.76,24.43,24.43,0,0,1,3.46,4.28C89.9,74.14,90.27,74.71,90.62,75.26Z" transform="translate(-59.42 -58.51)"/><path class="cls-2" d="M94.52,77.63a6.26,6.26,0,0,0,0-.63,3.68,3.68,0,0,1-.31.86Z" transform="translate(-59.42 -58.51)"/><path class="cls-3" d="M108.2,80l-.21-.2a4.4,4.4,0,0,0-.56-.43,3.8,3.8,0,0,0-2.33-.61l-1.14,0h-.08a6.08,6.08,0,0,1-.61,0h-.09c-.23,0-.45,0-.68-.08l-.31-.06a10.65,10.65,0,0,1-1.32-.38c-.3-.1-.59-.21-.85-.32l-.21-.08a3.94,3.94,0,0,0-3,.18l-.18.09a6,6,0,0,0-1.07.68A8.11,8.11,0,0,0,94.46,80l-.38.48c-.12.16-.24.33-.35.5.06.14.12.29.19.43.13.33.25.66.37,1a16.09,16.09,0,0,1,.8,5.08c0,.29,0,.58,0,.87a2,2,0,0,1-.07.84c0,.12,0,.24,0,.35h5A24.42,24.42,0,0,1,104,85.25a23.39,23.39,0,0,1,5.43-3.41A6.74,6.74,0,0,0,108.2,80Z" transform="translate(-59.42 -58.51)"/><path class="cls-4" d="M107.93,69.89a5.1,5.1,0,0,0,3.86-.17,10.15,10.15,0,0,0,3.57-3.61,10.32,10.32,0,0,0-5,.75A5.1,5.1,0,0,0,107.93,69.89Z" transform="translate(-59.42 -58.51)"/><path class="cls-4" d="M107.18,69.57a5.07,5.07,0,0,0,.59-3.83,10.37,10.37,0,0,0-2.86-4.2,10.24,10.24,0,0,0-.23,5.07A5.18,5.18,0,0,0,107.18,69.57Z" transform="translate(-59.42 -58.51)"/><path class="cls-4" d="M113.27,70.91a10.35,10.35,0,0,0-5,.76,5.07,5.07,0,0,0-2.41,3,5.1,5.1,0,0,0,3.86-.17A10.56,10.56,0,0,0,113.27,70.91Z" transform="translate(-59.42 -58.51)"/><path class="cls-4" d="M105.08,74.37a5.12,5.12,0,0,0,.59-3.83,10.44,10.44,0,0,0-2.86-4.2,10.27,10.27,0,0,0-.23,5.08A5.15,5.15,0,0,0,105.08,74.37Z" transform="translate(-59.42 -58.51)"/><path class="cls-4" d="M105.13,77.18a5.46,5.46,0,0,1,3.73,1.28,12.56,12.56,0,0,0,2.28-2.74,10.38,10.38,0,0,0-5,.76A4.54,4.54,0,0,0,105.13,77.18Z" transform="translate(-59.42 -58.51)"/><path class="cls-4" d="M103.67,77.2a4.37,4.37,0,0,0-.1-1.85,10.49,10.49,0,0,0-2.86-4.21,10.27,10.27,0,0,0-.23,5.08c0,.07,0,.14.07.22l.07,0a10.7,10.7,0,0,0,2.14.66A6.84,6.84,0,0,0,103.67,77.2Z" transform="translate(-59.42 -58.51)"/><path class="cls-4" d="M111.72,64.21a10.32,10.32,0,0,0,.47-5.06,10.31,10.31,0,0,0-3.41,3.77,5.15,5.15,0,0,0,0,3.88A5.12,5.12,0,0,0,111.72,64.21Z" transform="translate(-59.42 -58.51)"/><path class="cls-4" d="M117.87,84.05a2.93,2.93,0,0,0-.22-.67l-.07-.14a2.26,2.26,0,0,0-.25-.38v0l-.08-.08a2.27,2.27,0,0,0-.32-.3l-.08,0-.06,0a3.21,3.21,0,0,0-.45-.24,3.35,3.35,0,0,0-.56-.19,5.1,5.1,0,0,0-.91-.14c-.2,0-.41,0-.62,0a4.87,4.87,0,0,0-.65,0,11.46,11.46,0,0,0-2.18.5l-.77.28a7.76,7.76,0,0,0-.74.31,22.4,22.4,0,0,0-5.14,3.21,24,24,0,0,0-3.33,3.36h14.82a12.25,12.25,0,0,0,1.39-2.93,4.85,4.85,0,0,0,.16-.63,3.1,3.1,0,0,0,.08-.42l0-.19c0-.2,0-.4,0-.58A3.86,3.86,0,0,0,117.87,84.05Z" transform="translate(-59.42 -58.51)"/><path class="cls-5" d="M79.53,74.59a8.41,8.41,0,0,0-2.23-5.25,4.75,4.75,0,0,0-2.94-1.44,3.83,3.83,0,0,0-3,1.09A1.32,1.32,0,0,0,71,70.12a1.35,1.35,0,0,0,.7,1,1.33,1.33,0,0,0,1.6-.23,1.1,1.1,0,0,1,.89-.29,2.06,2.06,0,0,1,1.24.66,5.42,5.42,0,0,1,1.42,3.23A5.21,5.21,0,0,1,78,74.35,5.07,5.07,0,0,1,79.53,74.59Z" transform="translate(-59.42 -58.51)"/><path class="cls-6" d="M97.32,60.88a36.13,36.13,0,0,0-3.72,5.93c.36.87.68,1.77,1,2.69a31,31,0,0,1,1.24,6.14c0,.38,0,.75,0,1.11l.09,0a6.48,6.48,0,0,1,.62-.27C95.55,71.75,97.32,60.88,97.32,60.88Z" transform="translate(-59.42 -58.51)"/><path class="cls-6" d="M86.77,71.94c-.32-.39-.65-.76-1-1.12s-.59-.61-.89-.9l-.41-.4A36.46,36.46,0,0,0,78,64.7a90,90,0,0,1,5.17,9.82,8.15,8.15,0,0,1,3.16,0c.25.05.51.11.76.18s.54.17.81.28a8.18,8.18,0,0,1,1.5.77c-.31-.48-.62-1-.94-1.49A20,20,0,0,0,86.77,71.94Z" transform="translate(-59.42 -58.51)"/><path class="cls-7" d="M105.12,125.81h-.79v-1.56a1.09,1.09,0,0,0-1.18-1.22h-.48a1.1,1.1,0,0,0-1.22,1.22v1.56H98.53l.88-1.44,4.34-7.17a1.12,1.12,0,0,0-.43-1.64l-.37-.25a1.09,1.09,0,0,0-1.65.4l-7,11.54c-.51.84-.13,1.44.83,1.44h6.31v2.4a1.09,1.09,0,0,0,1.22,1.19h.48a1.08,1.08,0,0,0,1.18-1.19v-2.4h.79a1.09,1.09,0,0,0,1.18-1.21V127A1.08,1.08,0,0,0,105.12,125.81Z" transform="translate(-59.42 -58.51)"/><path class="cls-7" d="M117.84,129.4h-5.27a46.18,46.18,0,0,1,3.13-3.59c2-2.22,2.8-3.18,3-4.9a5.24,5.24,0,0,0-1.22-4.21,5.48,5.48,0,0,0-4.94-1.42c-2.23.36-4.12,2.3-4.5,5.61a1,1,0,0,0,1.16,1.26h.48c.76,0,1.14-.4,1.24-1.21.23-1.92,1-2.65,2-2.83a2.48,2.48,0,0,1,2.4.56,1.82,1.82,0,0,1,.36,1.81c-.23,1-.48,1.47-2,3.21s-4.32,4.17-5.53,7.22c-.31.84.15,1.37,1,1.37h8.63a1.09,1.09,0,0,0,1.21-1.19v-.48A1.1,1.1,0,0,0,117.84,129.4Z" transform="translate(-59.42 -58.51)"/><path class="cls-7" d="M123.33,80.53a35.26,35.26,0,0,1-4.24,4,4,4,0,0,1,0,.49,34.08,34.08,0,0,0,4.36-1.4,35.15,35.15,0,0,0,8.63-5A36,36,0,0,0,123.33,80.53Z" transform="translate(-59.42 -58.51)"/><path class="cls-7" d="M121,78.87c-.4.66-.83,1.3-1.29,1.94-.24.35-.5.69-.76,1l-.46.59a1.76,1.76,0,0,1,.14.23,3.24,3.24,0,0,1,.27.6c.62-.53,1.22-1.07,1.81-1.64.37-.36.74-.73,1.09-1.1s.52-.55.77-.83l.13-.15A35,35,0,0,0,128,71.3,35.64,35.64,0,0,0,123,75,35,35,0,0,1,121,78.87Z" transform="translate(-59.42 -58.51)"/><path class="cls-7" d="M117,81.13a4.27,4.27,0,0,1,.51.3c.07,0,.12.09.18.13a35.74,35.74,0,0,0,2.33-3.3l.32-.54c.39-.66.75-1.32,1.08-2,.24-.5.47-1,.68-1.45a35.79,35.79,0,0,0,1.84-5.22,35.07,35.07,0,0,0-6.45,7.62,34.23,34.23,0,0,0-2.11,4,5.78,5.78,0,0,1,1.07.24A4.5,4.5,0,0,1,117,81.13Z" transform="translate(-59.42 -58.51)"/><path class="cls-7" d="M74,76a7.15,7.15,0,0,0-2.86-.6c-5,0-9.13,5.38-9.13,12a15.49,15.49,0,0,0,.14,2.06H70a19.88,19.88,0,0,1-.1-2.06C69.91,82.55,71.57,78.29,74,76Z" transform="translate(-59.42 -58.51)"/><path class="cls-7" d="M93,82.2l0,0c0-.14-.11-.29-.17-.43l-.21-.49s0-.1-.08-.14c-.11-.24-.23-.46-.35-.68v0l-.35-.58a9.13,9.13,0,0,0-4.1-3.67,8.64,8.64,0,0,0-.85-.31,7.07,7.07,0,0,0-2-.31,7,7,0,0,0-1.21.11c-.21,0-.42.08-.63.13l-.62.2-.35.14a7.23,7.23,0,0,1,.66.69,10.94,10.94,0,0,1,1.18,1.66,15.78,15.78,0,0,1,1.61,4c.08.34.16.68.23,1a21,21,0,0,1,.38,4c0,.7,0,1.39-.1,2.06h7.83a15.49,15.49,0,0,0,.14-2.06,14.88,14.88,0,0,0-.71-4.6C93.16,82.62,93.08,82.41,93,82.2Z" transform="translate(-59.42 -58.51)"/><path class="cls-7" d="M83.58,80.46a9.57,9.57,0,0,0-2.66-3.81,4.29,4.29,0,0,0-.5-.37,4.48,4.48,0,0,0-.56-.32l-.32-.14A4.17,4.17,0,0,0,78,75.51a4,4,0,0,0-1.14.17,4.28,4.28,0,0,0-.68.25,4.4,4.4,0,0,0-.56.31l-.51.36c-2.37,1.9-4,6-4,10.84a19.85,19.85,0,0,0,.11,2.06H84.79a19.85,19.85,0,0,0,.11-2.06,18.91,18.91,0,0,0-1-6.08C83.82,81.05,83.71,80.75,83.58,80.46Z" transform="translate(-59.42 -58.51)"/><path class="cls-8" d="M116.85,90.73H59.49a16.9,16.9,0,0,0,16.88,16.36h29.9a16.9,16.9,0,0,0,16.88-16.36Zm-27.3,7.62H74a3.31,3.31,0,0,1-.55,0A2.52,2.52,0,0,1,71.21,96a2,2,0,0,1,.22-.92,2.78,2.78,0,0,1,.38-.54,2.82,2.82,0,0,1,.46-.38A3.15,3.15,0,0,1,74,93.63H93.48l.38,0a2.63,2.63,0,0,1,2.44,2.11,1.64,1.64,0,0,1,0,.23,2.63,2.63,0,0,1-2.84,2.36H89.55Zm19.53,3.27a1.75,1.75,0,0,1-1.89,1.58h-13a1.75,1.75,0,0,1-1.89-1.58h0a1.75,1.75,0,0,1,1.89-1.57h13a1.75,1.75,0,0,1,1.89,1.57Z" transform="translate(-59.42 -58.51)"/><polygon class="cls-9" points="58.2 30.99 57.54 30.99 56.83 30.99 56.27 30.99 52.14 30.99 51.28 30.99 50.42 30.99 42.01 30.99 41.33 30.99 40.53 30.99 35.54 30.99 35.44 30.99 34.96 30.99 34.67 30.99 34.37 30.99 33.3 30.99 32.48 30.99 32.43 30.99 31.72 30.99 31.58 30.99 26.54 30.99 25.95 30.99 25.37 30.99 21.89 30.99 21.3 30.99 20.72 30.99 16.4 30.99 15.81 30.99 15.23 30.99 11.75 30.99 11.17 30.99 10.59 30.99 2.75 30.99 2.17 30.99 1.58 30.99 0 30.99 0 32.22 0.07 32.22 1.78 32.22 2.37 32.22 2.97 32.22 10.75 32.22 11.33 32.22 11.92 32.22 15.43 32.22 16.02 32.22 16.61 32.22 20.5 32.22 21.09 32.22 21.68 32.22 25.2 32.22 25.79 32.22 26.38 32.22 32.07 32.22 32.96 32.22 33.89 32.22 34.16 32.22 34.75 32.22 35.34 32.22 39.7 32.22 40.44 32.22 41.1 32.22 49.83 32.22 50.75 32.22 51.65 32.22 55.98 32.22 56.27 32.22 56.76 32.22 57.42 32.22 63.73 32.22 63.87 32.22 63.87 30.99 58.2 30.99"/><path class="cls-9" d="M96.32,96a1.64,1.64,0,0,0,0-.23,2.63,2.63,0,0,0-2.44-2.11l-.38,0H74a3.15,3.15,0,0,0-1.77.52,2.82,2.82,0,0,0-.46.38,2.78,2.78,0,0,0-.38.54,2,2,0,0,0-.22.92,2.52,2.52,0,0,0,2.28,2.32,3.31,3.31,0,0,0,.55,0H93.48A2.63,2.63,0,0,0,96.32,96Z" transform="translate(-59.42 -58.51)"/><path class="cls-9" d="M107.19,100.05h-13a1.75,1.75,0,0,0-1.89,1.57h0a1.75,1.75,0,0,0,1.89,1.58h13a1.75,1.75,0,0,0,1.89-1.58h0A1.75,1.75,0,0,0,107.19,100.05Z" transform="translate(-59.42 -58.51)"/><path class="cls-1" d="M71.63,115.08h-.47A1.08,1.08,0,0,0,70,116.27v6h-.55a1.07,1.07,0,0,0-1.19,1.18v.48a1.08,1.08,0,0,0,1.19,1.19H70v6.22a1.08,1.08,0,0,0,1.19,1.19h.47a1.08,1.08,0,0,0,1.19-1.19V116.27A1.08,1.08,0,0,0,71.63,115.08Z" transform="translate(-59.42 -58.51)"/><rect class="cls-1" x="14.11" y="56.57" width="2.85" height="17.44" rx="1.19"/><path class="cls-1" d="M68.42,129.76l-.09-.12L66.12,127a1.13,1.13,0,0,0-.48-.38,49.6,49.6,0,0,0,1.41-8.84H68a1.08,1.08,0,0,0,1.19-1.19v-.33A1.08,1.08,0,0,0,68,115.08H62.48a1.07,1.07,0,0,0-1.18,1.19v.33a1.07,1.07,0,0,0,1.18,1.19h1.93c-.29,5.23-1.47,10.1-3.3,12.83-.29.4-.07.81.59,1.21l.55.33a1,1,0,0,0,1.61-.45,32.32,32.32,0,0,0,1.29-3.3l.57,2.61,0,.1a3.4,3.4,0,0,0,.09.33,1.53,1.53,0,0,0,2,.86,1.49,1.49,0,0,0,.85-2A1.83,1.83,0,0,0,68.42,129.76Z" transform="translate(-59.42 -58.51)"/><path class="cls-1" d="M90.64,124.92H81.8a1.14,1.14,0,1,0,0,2.28H89V128H81.8c-.76,0-1.19.28-1.19.76a.47.47,0,0,0,.07.28,1.51,1.51,0,0,0-.07.48v1.9a1.05,1.05,0,0,0,1.19,1.14h8.84a1.14,1.14,0,1,0,0-2.28H83.46v-.76h7.18c.76,0,1.19-.29,1.19-.76a1,1,0,0,0,0-.24,1.55,1.55,0,0,0,0-.36V126.6a.89.89,0,0,0,0-.28.72.72,0,0,0,0-.26A1.05,1.05,0,0,0,90.64,124.92Z" transform="translate(-59.42 -58.51)"/><path class="cls-1" d="M90.14,124.37h.47a1.08,1.08,0,0,0,1.19-1.19v-6.91a1.08,1.08,0,0,0-1.19-1.19h-.47A1.08,1.08,0,0,0,89,116.27v1.5h-.47A1.07,1.07,0,0,0,87.29,119v.48a1.08,1.08,0,0,0,1.19,1.19H89v2.56A1.08,1.08,0,0,0,90.14,124.37Z" transform="translate(-59.42 -58.51)"/><path class="cls-1" d="M81.32,123.54c.67-.88,1.22-1.62,1.64-2.28l1,1.85.22.36c.05.09.24.31.33.43a1.6,1.6,0,0,0,2.19,0,1.52,1.52,0,0,0,0-2.28,6.39,6.39,0,0,0-.92-.55l-2-1.07a8.34,8.34,0,0,0,.64-2.23h1.4a1.08,1.08,0,0,0,1.19-1.19v-.33a1.08,1.08,0,0,0-1.19-1.19H84.13V115c0-.67-.43-1-1.19-1h-.33c-.76,0-1.19.36-1.19,1v.09H79.8a1.07,1.07,0,0,0-1.18,1.19v.33a1.07,1.07,0,0,0,1.18,1.19h1.5A10.16,10.16,0,0,1,78.85,122a.93.93,0,0,0,.29,1.57l.52.31A1.12,1.12,0,0,0,81.32,123.54Z" transform="translate(-59.42 -58.51)"/><path class="cls-2" d="M90.62,75.26c.37.59.72,1.14,1,1.68.58.94,1,1.66,1.29,2.28a10.38,10.38,0,0,1,1.29-1.36,3.68,3.68,0,0,0,.31-.86,8.79,8.79,0,0,0,0-1.24,29.75,29.75,0,0,0-1.18-5.88c-1.52-4.91-4.19-9.17-7.1-11.37a21.22,21.22,0,0,0-.16,10.76,24.43,24.43,0,0,1,3.46,4.28C89.9,74.14,90.27,74.71,90.62,75.26Z" transform="translate(-59.42 -58.51)"/><path class="cls-2" d="M94.52,77.63a6.26,6.26,0,0,0,0-.63,3.68,3.68,0,0,1-.31.86Z" transform="translate(-59.42 -58.51)"/><path class="cls-3" d="M108.2,80l-.21-.2a4.4,4.4,0,0,0-.56-.43,3.8,3.8,0,0,0-2.33-.61l-1.14,0h-.08a6.08,6.08,0,0,1-.61,0h-.09c-.23,0-.45,0-.68-.08l-.31-.06a10.65,10.65,0,0,1-1.32-.38c-.3-.1-.59-.21-.85-.32l-.21-.08a3.94,3.94,0,0,0-3,.18l-.18.09a6,6,0,0,0-1.07.68A8.11,8.11,0,0,0,94.46,80l-.38.48c-.12.16-.24.33-.35.5.06.14.12.29.19.43.13.33.25.66.37,1a16.09,16.09,0,0,1,.8,5.08c0,.29,0,.58,0,.87a2,2,0,0,1-.07.84c0,.12,0,.24,0,.35h5A24.42,24.42,0,0,1,104,85.25a23.39,23.39,0,0,1,5.43-3.41A6.74,6.74,0,0,0,108.2,80Z" transform="translate(-59.42 -58.51)"/><path class="cls-4" d="M107.93,69.89a5.1,5.1,0,0,0,3.86-.17,10.15,10.15,0,0,0,3.57-3.61,10.32,10.32,0,0,0-5,.75A5.1,5.1,0,0,0,107.93,69.89Z" transform="translate(-59.42 -58.51)"/><path class="cls-4" d="M107.18,69.57a5.07,5.07,0,0,0,.59-3.83,10.37,10.37,0,0,0-2.86-4.2,10.24,10.24,0,0,0-.23,5.07A5.18,5.18,0,0,0,107.18,69.57Z" transform="translate(-59.42 -58.51)"/><path class="cls-4" d="M113.27,70.91a10.35,10.35,0,0,0-5,.76,5.07,5.07,0,0,0-2.41,3,5.1,5.1,0,0,0,3.86-.17A10.56,10.56,0,0,0,113.27,70.91Z" transform="translate(-59.42 -58.51)"/><path class="cls-4" d="M105.08,74.37a5.12,5.12,0,0,0,.59-3.83,10.44,10.44,0,0,0-2.86-4.2,10.27,10.27,0,0,0-.23,5.08A5.15,5.15,0,0,0,105.08,74.37Z" transform="translate(-59.42 -58.51)"/><path class="cls-4" d="M105.13,77.18a5.46,5.46,0,0,1,3.73,1.28,12.56,12.56,0,0,0,2.28-2.74,10.38,10.38,0,0,0-5,.76A4.54,4.54,0,0,0,105.13,77.18Z" transform="translate(-59.42 -58.51)"/><path class="cls-4" d="M103.67,77.2a4.37,4.37,0,0,0-.1-1.85,10.49,10.49,0,0,0-2.86-4.21,10.27,10.27,0,0,0-.23,5.08c0,.07,0,.14.07.22l.07,0a10.7,10.7,0,0,0,2.14.66A6.84,6.84,0,0,0,103.67,77.2Z" transform="translate(-59.42 -58.51)"/><path class="cls-4" d="M111.72,64.21a10.32,10.32,0,0,0,.47-5.06,10.31,10.31,0,0,0-3.41,3.77,5.15,5.15,0,0,0,0,3.88A5.12,5.12,0,0,0,111.72,64.21Z" transform="translate(-59.42 -58.51)"/><path class="cls-4" d="M117.87,84.05a2.93,2.93,0,0,0-.22-.67l-.07-.14a2.26,2.26,0,0,0-.25-.38v0l-.08-.08a2.27,2.27,0,0,0-.32-.3l-.08,0-.06,0a3.21,3.21,0,0,0-.45-.24,3.35,3.35,0,0,0-.56-.19,5.1,5.1,0,0,0-.91-.14c-.2,0-.41,0-.62,0a4.87,4.87,0,0,0-.65,0,11.46,11.46,0,0,0-2.18.5l-.77.28a7.76,7.76,0,0,0-.74.31,22.4,22.4,0,0,0-5.14,3.21,24,24,0,0,0-3.33,3.36h14.82a12.25,12.25,0,0,0,1.39-2.93,4.85,4.85,0,0,0,.16-.63,3.1,3.1,0,0,0,.08-.42l0-.19c0-.2,0-.4,0-.58A3.86,3.86,0,0,0,117.87,84.05Z" transform="translate(-59.42 -58.51)"/><path class="cls-5" d="M79.53,74.59a8.41,8.41,0,0,0-2.23-5.25,4.75,4.75,0,0,0-2.94-1.44,3.83,3.83,0,0,0-3,1.09A1.32,1.32,0,0,0,71,70.12a1.35,1.35,0,0,0,.7,1,1.33,1.33,0,0,0,1.6-.23,1.1,1.1,0,0,1,.89-.29,2.06,2.06,0,0,1,1.24.66,5.42,5.42,0,0,1,1.42,3.23A5.21,5.21,0,0,1,78,74.35,5.07,5.07,0,0,1,79.53,74.59Z" transform="translate(-59.42 -58.51)"/><path class="cls-6" d="M97.32,60.88a36.13,36.13,0,0,0-3.72,5.93c.36.87.68,1.77,1,2.69a31,31,0,0,1,1.24,6.14c0,.38,0,.75,0,1.11l.09,0a6.48,6.48,0,0,1,.62-.27C95.55,71.75,97.32,60.88,97.32,60.88Z" transform="translate(-59.42 -58.51)"/><path class="cls-6" d="M86.77,71.94c-.32-.39-.65-.76-1-1.12s-.59-.61-.89-.9l-.41-.4A36.46,36.46,0,0,0,78,64.7a90,90,0,0,1,5.17,9.82,8.15,8.15,0,0,1,3.16,0c.25.05.51.11.76.18s.54.17.81.28a8.18,8.18,0,0,1,1.5.77c-.31-.48-.62-1-.94-1.49A20,20,0,0,0,86.77,71.94Z" transform="translate(-59.42 -58.51)"/><path class="cls-7" d="M105.12,125.81h-.79v-1.56a1.09,1.09,0,0,0-1.18-1.22h-.48a1.1,1.1,0,0,0-1.22,1.22v1.56H98.53l.88-1.44,4.34-7.17a1.12,1.12,0,0,0-.43-1.64l-.37-.25a1.09,1.09,0,0,0-1.65.4l-7,11.54c-.51.84-.13,1.44.83,1.44h6.31v2.4a1.09,1.09,0,0,0,1.22,1.19h.48a1.08,1.08,0,0,0,1.18-1.19v-2.4h.79a1.09,1.09,0,0,0,1.18-1.21V127A1.08,1.08,0,0,0,105.12,125.81Z" transform="translate(-59.42 -58.51)"/><path class="cls-7" d="M117.84,129.4h-5.27a46.18,46.18,0,0,1,3.13-3.59c2-2.22,2.8-3.18,3-4.9a5.24,5.24,0,0,0-1.22-4.21,5.48,5.48,0,0,0-4.94-1.42c-2.23.36-4.12,2.3-4.5,5.61a1,1,0,0,0,1.16,1.26h.48c.76,0,1.14-.4,1.24-1.21.23-1.92,1-2.65,2-2.83a2.48,2.48,0,0,1,2.4.56,1.82,1.82,0,0,1,.36,1.81c-.23,1-.48,1.47-2,3.21s-4.32,4.17-5.53,7.22c-.31.84.15,1.37,1,1.37h8.63a1.09,1.09,0,0,0,1.21-1.19v-.48A1.1,1.1,0,0,0,117.84,129.4Z" transform="translate(-59.42 -58.51)"/><path class="cls-7" d="M123.33,80.53a35.26,35.26,0,0,1-4.24,4,4,4,0,0,1,0,.49,34.08,34.08,0,0,0,4.36-1.4,35.15,35.15,0,0,0,8.63-5A36,36,0,0,0,123.33,80.53Z" transform="translate(-59.42 -58.51)"/><path class="cls-7" d="M121,78.87c-.4.66-.83,1.3-1.29,1.94-.24.35-.5.69-.76,1l-.46.59a1.76,1.76,0,0,1,.14.23,3.24,3.24,0,0,1,.27.6c.62-.53,1.22-1.07,1.81-1.64.37-.36.74-.73,1.09-1.1s.52-.55.77-.83l.13-.15A35,35,0,0,0,128,71.3,35.64,35.64,0,0,0,123,75,35,35,0,0,1,121,78.87Z" transform="translate(-59.42 -58.51)"/><path class="cls-7" d="M117,81.13a4.27,4.27,0,0,1,.51.3c.07,0,.12.09.18.13a35.74,35.74,0,0,0,2.33-3.3l.32-.54c.39-.66.75-1.32,1.08-2,.24-.5.47-1,.68-1.45a35.79,35.79,0,0,0,1.84-5.22,35.07,35.07,0,0,0-6.45,7.62,34.23,34.23,0,0,0-2.11,4,5.78,5.78,0,0,1,1.07.24A4.5,4.5,0,0,1,117,81.13Z" transform="translate(-59.42 -58.51)"/><path class="cls-7" d="M74,76a7.15,7.15,0,0,0-2.86-.6c-5,0-9.13,5.38-9.13,12a15.49,15.49,0,0,0,.14,2.06H70a19.88,19.88,0,0,1-.1-2.06C69.91,82.55,71.57,78.29,74,76Z" transform="translate(-59.42 -58.51)"/><path class="cls-7" d="M93,82.2l0,0c0-.14-.11-.29-.17-.43l-.21-.49s0-.1-.08-.14c-.11-.24-.23-.46-.35-.68v0l-.35-.58a9.13,9.13,0,0,0-4.1-3.67,8.64,8.64,0,0,0-.85-.31,7.07,7.07,0,0,0-2-.31,7,7,0,0,0-1.21.11c-.21,0-.42.08-.63.13l-.62.2-.35.14a7.23,7.23,0,0,1,.66.69,10.94,10.94,0,0,1,1.18,1.66,15.78,15.78,0,0,1,1.61,4c.08.34.16.68.23,1a21,21,0,0,1,.38,4c0,.7,0,1.39-.1,2.06h7.83a15.49,15.49,0,0,0,.14-2.06,14.88,14.88,0,0,0-.71-4.6C93.16,82.62,93.08,82.41,93,82.2Z" transform="translate(-59.42 -58.51)"/><path class="cls-7" d="M83.58,80.46a9.57,9.57,0,0,0-2.66-3.81,4.29,4.29,0,0,0-.5-.37,4.48,4.48,0,0,0-.56-.32l-.32-.14A4.17,4.17,0,0,0,78,75.51a4,4,0,0,0-1.14.17,4.28,4.28,0,0,0-.68.25,4.4,4.4,0,0,0-.56.31l-.51.36c-2.37,1.9-4,6-4,10.84a19.85,19.85,0,0,0,.11,2.06H84.79a19.85,19.85,0,0,0,.11-2.06,18.91,18.91,0,0,0-1-6.08C83.82,81.05,83.71,80.75,83.58,80.46Z" transform="translate(-59.42 -58.51)"/><path class="cls-8" d="M116.85,90.73H59.49a16.9,16.9,0,0,0,16.88,16.36h29.9a16.9,16.9,0,0,0,16.88-16.36Zm-27.3,7.62H74a3.31,3.31,0,0,1-.55,0A2.52,2.52,0,0,1,71.21,96a2,2,0,0,1,.22-.92,2.78,2.78,0,0,1,.38-.54,2.82,2.82,0,0,1,.46-.38A3.15,3.15,0,0,1,74,93.63H93.48l.38,0a2.63,2.63,0,0,1,2.44,2.11,1.64,1.64,0,0,1,0,.23,2.63,2.63,0,0,1-2.84,2.36H89.55Zm19.53,3.27a1.75,1.75,0,0,1-1.89,1.58h-13a1.75,1.75,0,0,1-1.89-1.58h0a1.75,1.75,0,0,1,1.89-1.57h13a1.75,1.75,0,0,1,1.89,1.57Z" transform="translate(-59.42 -58.51)"/><polygon class="cls-9" points="58.2 30.99 57.54 30.99 56.83 30.99 56.27 30.99 52.14 30.99 51.28 30.99 50.42 30.99 42.01 30.99 41.33 30.99 40.53 30.99 35.54 30.99 35.44 30.99 34.96 30.99 34.67 30.99 34.37 30.99 33.3 30.99 32.48 30.99 32.43 30.99 31.72 30.99 31.58 30.99 26.54 30.99 25.95 30.99 25.37 30.99 21.89 30.99 21.3 30.99 20.72 30.99 16.4 30.99 15.81 30.99 15.23 30.99 11.75 30.99 11.17 30.99 10.59 30.99 2.75 30.99 2.17 30.99 1.58 30.99 0 30.99 0 32.22 0.07 32.22 1.78 32.22 2.37 32.22 2.97 32.22 10.75 32.22 11.33 32.22 11.92 32.22 15.43 32.22 16.02 32.22 16.61 32.22 20.5 32.22 21.09 32.22 21.68 32.22 25.2 32.22 25.79 32.22 26.38 32.22 32.07 32.22 32.96 32.22 33.89 32.22 34.16 32.22 34.75 32.22 35.34 32.22 39.7 32.22 40.44 32.22 41.1 32.22 49.83 32.22 50.75 32.22 51.65 32.22 55.98 32.22 56.27 32.22 56.76 32.22 57.42 32.22 63.73 32.22 63.87 32.22 63.87 30.99 58.2 30.99"/><path class="cls-9" d="M96.32,96a1.64,1.64,0,0,0,0-.23,2.63,2.63,0,0,0-2.44-2.11l-.38,0H74a3.15,3.15,0,0,0-1.77.52,2.82,2.82,0,0,0-.46.38,2.78,2.78,0,0,0-.38.54,2,2,0,0,0-.22.92,2.52,2.52,0,0,0,2.28,2.32,3.31,3.31,0,0,0,.55,0H93.48A2.63,2.63,0,0,0,96.32,96Z" transform="translate(-59.42 -58.51)"/><path class="cls-9" d="M107.19,100.05h-13a1.75,1.75,0,0,0-1.89,1.57h0a1.75,1.75,0,0,0,1.89,1.58h13a1.75,1.75,0,0,0,1.89-1.58h0A1.75,1.75,0,0,0,107.19,100.05Z" transform="translate(-59.42 -58.51)"/></svg>